<svg xmlns="http://www.w3.org/2000/svg" version="1.1" xmlns:xlink="http://www.w3.org/1999/xlink" width="1000" height="1000"><style>
    #light-icon {
      display: inline;
    }
    #dark-icon {
      display: none;
    }

    @media (prefers-color-scheme: dark) {
      #light-icon {
        display: none;
      }
      #dark-icon {
        display: inline;
      }
    }
  </style><g id="light-icon"><svg xmlns="http://www.w3.org/2000/svg" version="1.1" xmlns:xlink="http://www.w3.org/1999/xlink" width="1000" height="1000"><g clip-path="url(#SvgjsClipPath1274)"><rect width="1000" height="1000" fill="#e85d35"></rect><g transform="matrix(1.4,0,0,1.4,150,150)"><svg xmlns="http://www.w3.org/2000/svg" version="1.1" xmlns:xlink="http://www.w3.org/1999/xlink" width="500" height="500"><svg xmlns="http://www.w3.org/2000/svg" xmlns:xlink="http://www.w3.org/1999/xlink" width="500" zoomAndPan="magnify" viewBox="0 0 375 374.999991" height="500" preserveAspectRatio="xMidYMid meet" version="1.0"><defs><clipPath id="c14d6c78c2"><path d="M 7 7.003906 L 274 7.003906 L 274 197 L 7 197 Z M 7 7.003906 " clip-rule="nonzero"></path></clipPath><clipPath id="c263269e43"><path d="M 182 98 L 368 98 L 368 367.753906 L 182 367.753906 Z M 182 98 " clip-rule="nonzero"></path></clipPath><clipPath id="fd43fadb41"><path d="M 238.632812 119.832031 L 253.917969 119.832031 L 253.917969 137.339844 L 238.632812 137.339844 Z M 238.632812 119.832031 " clip-rule="nonzero"></path></clipPath><clipPath id="0cd5ea2dde"><path d="M 0.632812 0.832031 L 15.917969 0.832031 L 15.917969 18.339844 L 0.632812 18.339844 Z M 0.632812 0.832031 " clip-rule="nonzero"></path></clipPath><clipPath id="f3eacbb4e3"><rect x="0" width="16" y="0" height="19"></rect></clipPath><clipPath id="SvgjsClipPath1274"><rect width="1000" height="1000" x="0" y="0" rx="500" ry="500"></rect></clipPath></defs><path fill="#fafafa" d="M 287.601562 115.929688 C 295.570312 107.960938 295.570312 95.019531 287.601562 87.050781 C 279.636719 79.082031 266.695312 79.082031 258.726562 87.050781 C 250.757812 95.019531 250.757812 107.960938 258.726562 115.929688 C 266.695312 123.898438 279.636719 123.898438 287.601562 115.929688 Z M 287.601562 115.929688 " fill-opacity="1" fill-rule="nonzero"></path><path fill="#fafafa" d="M 236.929688 119.730469 C 231.984375 124.703125 231.957031 132.75 236.929688 137.722656 C 241.902344 142.695312 249.949219 142.671875 254.925781 137.722656 C 259.898438 132.75 259.898438 124.703125 254.925781 119.730469 C 249.949219 114.78125 241.902344 114.78125 236.929688 119.730469 Z M 236.929688 119.730469 " fill-opacity="1" fill-rule="nonzero"></path><path fill="#fafafa" d="M 352.648438 22.003906 C 169.046875 35.78125 148.554688 187.015625 148.554688 187.015625 C 195.761719 63.328125 321.039062 53.617188 321.039062 53.617188 C 321.039062 53.617188 311.324219 178.890625 187.636719 226.101562 C 187.636719 226.128906 338.875 205.609375 352.648438 22.003906 Z M 352.648438 22.003906 " fill-opacity="1" fill-rule="nonzero"></path><path fill="#fafafa" d="M 215.394531 109.472656 C 208.808594 113.507812 203 118.609375 197.636719 124.132812 C 192.246094 129.625 187.507812 135.746094 183.210938 142.125 C 178.96875 148.554688 175.320312 155.457031 172.507812 162.644531 C 169.59375 169.804688 167.820312 177.433594 167.144531 185.089844 C 170.738281 178.242188 173.890625 171.523438 177.640625 165.066406 C 181.363281 158.632812 185.085938 152.226562 189.277344 146.109375 C 197.375 133.6875 206.308594 121.867188 215.394531 109.472656 Z M 215.394531 109.472656 " fill-opacity="1" fill-rule="nonzero"></path><path fill="#fafafa" d="M 180.582031 96.660156 C 180.582031 96.660156 131.550781 100.824219 93.738281 132.230469 L 139.570312 178.058594 C 139.570312 178.058594 120.691406 150.691406 116.8125 134.808594 C 112.957031 118.921875 180.582031 96.660156 180.582031 96.660156 Z M 180.582031 96.660156 " fill-opacity="1" fill-rule="nonzero"></path><path fill="#fafafa" d="M 148.839844 239.25 L 123.035156 265.914062 L 127.382812 247.269531 L 108.738281 251.621094 L 135.402344 225.816406 L 115.015625 225.816406 L 138.867188 198.917969 L 81.839844 239.902344 L 112.644531 235.996094 L 80.773438 262.660156 L 99.183594 261.152344 L 67.960938 306.695312 L 113.503906 275.472656 L 111.992188 293.882812 L 138.65625 262.035156 L 134.753906 292.8125 L 175.738281 235.789062 L 148.839844 259.640625 Z M 148.839844 239.25 " fill-opacity="1" fill-rule="nonzero"></path><path fill="#fafafa" d="M 209.589844 197.042969 C 203.132812 200.792969 196.414062 203.941406 189.566406 207.535156 C 197.21875 206.859375 204.851562 205.0625 212.011719 202.171875 C 219.199219 199.332031 226.097656 195.714844 232.53125 191.46875 C 238.9375 187.148438 245.027344 182.40625 250.523438 177.042969 C 256.042969 171.679688 261.148438 165.871094 265.183594 159.285156 C 252.816406 168.371094 240.992188 177.328125 228.546875 185.429688 C 222.402344 189.59375 216.019531 193.316406 209.589844 197.042969 Z M 209.589844 197.042969 " fill-opacity="1" fill-rule="nonzero"></path><path fill="#fafafa" d="M 239.875 257.84375 C 223.988281 253.988281 196.59375 235.085938 196.59375 235.085938 L 242.425781 280.914062 C 273.828125 243.105469 277.996094 194.074219 277.996094 194.074219 C 277.996094 194.074219 255.730469 261.699219 239.875 257.84375 Z M 239.875 257.84375 " fill-opacity="1" fill-rule="nonzero"></path><g clip-path="url(#c14d6c78c2)"><path fill="#fafafa" d="M 117.828125 46.898438 C 132.589844 41.351562 148.007812 38.226562 163.472656 36.5625 C 179.046875 35.648438 194.667969 36.351562 209.851562 39.347656 C 219.433594 41.535156 228.804688 44.398438 237.894531 48.019531 C 248.464844 41.613281 260.15625 35.804688 273.125 30.804688 C 271.277344 29.738281 269.453125 28.59375 267.554688 27.601562 C 251.042969 19.324219 233.363281 13.566406 215.292969 10.207031 C 197.117188 7.292969 178.65625 7.003906 160.503906 9.167969 C 142.40625 11.847656 124.699219 16.824219 108.242188 24.503906 C 91.941406 32.472656 76.632812 42.289062 63.351562 54.371094 C 50.332031 66.742188 39.058594 80.699219 29.96875 95.90625 C 21.324219 111.398438 14.945312 127.90625 11.089844 144.859375 C 7.496094 161.914062 6.820312 179.308594 8.355469 196.207031 C 9.761719 187.746094 10.101562 179.359375 12.472656 171.210938 L 13.851562 165.089844 L 14.527344 162.042969 L 15.492188 159.074219 L 19.398438 147.253906 C 25.515625 131.863281 33.09375 117.28125 42.78125 104.238281 C 52.597656 91.320312 63.898438 79.761719 76.527344 69.996094 C 89.367188 60.59375 103.191406 52.703125 117.828125 46.898438 Z M 117.828125 46.898438 " fill-opacity="1" fill-rule="nonzero"></path></g><g clip-path="url(#c263269e43)"><path fill="#fafafa" d="M 364.132812 155.742188 C 360.355469 137.75 354.210938 120.199219 345.566406 103.871094 C 344.527344 102.023438 343.355469 100.226562 342.234375 98.402344 C 337.519531 111.503906 331.949219 123.351562 325.777344 134.078125 C 329.578125 143.0625 332.652344 152.359375 335.019531 161.863281 C 338.355469 176.992188 339.421875 192.5625 338.847656 208.160156 C 338.535156 212.039062 337.988281 215.894531 337.597656 219.773438 C 337.339844 221.699219 337.261719 223.679688 336.871094 225.582031 L 335.644531 231.308594 L 334.472656 237.0625 C 334.136719 239.015625 333.691406 240.917969 333.042969 242.765625 L 329.554688 254.015625 C 324.085938 268.78125 316.507812 282.761719 307.339844 295.835938 C 297.863281 308.644531 286.585938 320.234375 273.878906 330.335938 C 261.070312 340.308594 246.667969 348.253906 231.410156 354.683594 L 219.691406 358.851562 L 216.722656 359.890625 L 213.703125 360.648438 L 207.636719 362.15625 C 199.5625 364.683594 191.152344 365.257812 182.742188 366.84375 C 199.695312 367.988281 217.035156 366.949219 234.039062 362.992188 C 250.914062 358.746094 267.292969 352.003906 282.578125 343.042969 C 297.550781 333.59375 311.273438 322.03125 323.355469 308.722656 C 335.125 295.132812 344.628906 279.636719 352.234375 263.15625 C 359.550781 246.515625 364.105469 228.707031 366.398438 210.554688 C 368.167969 192.300781 367.441406 173.839844 364.132812 155.742188 Z M 364.132812 155.742188 " fill-opacity="1" fill-rule="nonzero"></path></g><g clip-path="url(#fd43fadb41)"><g transform="matrix(1, 0, 0, 1, 238, 119)"><g clip-path="url(#f3eacbb4e3)"><g clip-path="url(#0cd5ea2dde)"><path fill="#fafafa" d="M 0.632812 0.832031 L 15.917969 0.832031 L 15.917969 18.324219 L 0.632812 18.324219 Z M 0.632812 0.832031 " fill-opacity="1" fill-rule="nonzero"></path></g></g></g></g></svg></svg></g></g></svg></g><g id="dark-icon"><svg xmlns="http://www.w3.org/2000/svg" version="1.1" xmlns:xlink="http://www.w3.org/1999/xlink" width="1000" height="1000"><g clip-path="url(#SvgjsClipPath1275)"><rect width="1000" height="1000" fill="#e85d35"></rect><g transform="matrix(1.4,0,0,1.4,150,150)"><svg xmlns="http://www.w3.org/2000/svg" version="1.1" xmlns:xlink="http://www.w3.org/1999/xlink" width="500" height="500"><svg xmlns="http://www.w3.org/2000/svg" xmlns:xlink="http://www.w3.org/1999/xlink" width="500" zoomAndPan="magnify" viewBox="0 0 375 374.999991" height="500" preserveAspectRatio="xMidYMid meet" version="1.0"><defs><clipPath id="c14d6c78c2"><path d="M 7 7.003906 L 274 7.003906 L 274 197 L 7 197 Z M 7 7.003906 " clip-rule="nonzero"></path></clipPath><clipPath id="c263269e43"><path d="M 182 98 L 368 98 L 368 367.753906 L 182 367.753906 Z M 182 98 " clip-rule="nonzero"></path></clipPath><clipPath id="fd43fadb41"><path d="M 238.632812 119.832031 L 253.917969 119.832031 L 253.917969 137.339844 L 238.632812 137.339844 Z M 238.632812 119.832031 " clip-rule="nonzero"></path></clipPath><clipPath id="0cd5ea2dde"><path d="M 0.632812 0.832031 L 15.917969 0.832031 L 15.917969 18.339844 L 0.632812 18.339844 Z M 0.632812 0.832031 " clip-rule="nonzero"></path></clipPath><clipPath id="f3eacbb4e3"><rect x="0" width="16" y="0" height="19"></rect></clipPath><clipPath id="SvgjsClipPath1275"><rect width="1000" height="1000" x="0" y="0" rx="500" ry="500"></rect></clipPath></defs><path fill="#fafafa" d="M 287.601562 115.929688 C 295.570312 107.960938 295.570312 95.019531 287.601562 87.050781 C 279.636719 79.082031 266.695312 79.082031 258.726562 87.050781 C 250.757812 95.019531 250.757812 107.960938 258.726562 115.929688 C 266.695312 123.898438 279.636719 123.898438 287.601562 115.929688 Z M 287.601562 115.929688 " fill-opacity="1" fill-rule="nonzero"></path><path fill="#fafafa" d="M 236.929688 119.730469 C 231.984375 124.703125 231.957031 132.75 236.929688 137.722656 C 241.902344 142.695312 249.949219 142.671875 254.925781 137.722656 C 259.898438 132.75 259.898438 124.703125 254.925781 119.730469 C 249.949219 114.78125 241.902344 114.78125 236.929688 119.730469 Z M 236.929688 119.730469 " fill-opacity="1" fill-rule="nonzero"></path><path fill="#fafafa" d="M 352.648438 22.003906 C 169.046875 35.78125 148.554688 187.015625 148.554688 187.015625 C 195.761719 63.328125 321.039062 53.617188 321.039062 53.617188 C 321.039062 53.617188 311.324219 178.890625 187.636719 226.101562 C 187.636719 226.128906 338.875 205.609375 352.648438 22.003906 Z M 352.648438 22.003906 " fill-opacity="1" fill-rule="nonzero"></path><path fill="#fafafa" d="M 215.394531 109.472656 C 208.808594 113.507812 203 118.609375 197.636719 124.132812 C 192.246094 129.625 187.507812 135.746094 183.210938 142.125 C 178.96875 148.554688 175.320312 155.457031 172.507812 162.644531 C 169.59375 169.804688 167.820312 177.433594 167.144531 185.089844 C 170.738281 178.242188 173.890625 171.523438 177.640625 165.066406 C 181.363281 158.632812 185.085938 152.226562 189.277344 146.109375 C 197.375 133.6875 206.308594 121.867188 215.394531 109.472656 Z M 215.394531 109.472656 " fill-opacity="1" fill-rule="nonzero"></path><path fill="#fafafa" d="M 180.582031 96.660156 C 180.582031 96.660156 131.550781 100.824219 93.738281 132.230469 L 139.570312 178.058594 C 139.570312 178.058594 120.691406 150.691406 116.8125 134.808594 C 112.957031 118.921875 180.582031 96.660156 180.582031 96.660156 Z M 180.582031 96.660156 " fill-opacity="1" fill-rule="nonzero"></path><path fill="#fafafa" d="M 148.839844 239.25 L 123.035156 265.914062 L 127.382812 247.269531 L 108.738281 251.621094 L 135.402344 225.816406 L 115.015625 225.816406 L 138.867188 198.917969 L 81.839844 239.902344 L 112.644531 235.996094 L 80.773438 262.660156 L 99.183594 261.152344 L 67.960938 306.695312 L 113.503906 275.472656 L 111.992188 293.882812 L 138.65625 262.035156 L 134.753906 292.8125 L 175.738281 235.789062 L 148.839844 259.640625 Z M 148.839844 239.25 " fill-opacity="1" fill-rule="nonzero"></path><path fill="#fafafa" d="M 209.589844 197.042969 C 203.132812 200.792969 196.414062 203.941406 189.566406 207.535156 C 197.21875 206.859375 204.851562 205.0625 212.011719 202.171875 C 219.199219 199.332031 226.097656 195.714844 232.53125 191.46875 C 238.9375 187.148438 245.027344 182.40625 250.523438 177.042969 C 256.042969 171.679688 261.148438 165.871094 265.183594 159.285156 C 252.816406 168.371094 240.992188 177.328125 228.546875 185.429688 C 222.402344 189.59375 216.019531 193.316406 209.589844 197.042969 Z M 209.589844 197.042969 " fill-opacity="1" fill-rule="nonzero"></path><path fill="#fafafa" d="M 239.875 257.84375 C 223.988281 253.988281 196.59375 235.085938 196.59375 235.085938 L 242.425781 280.914062 C 273.828125 243.105469 277.996094 194.074219 277.996094 194.074219 C 277.996094 194.074219 255.730469 261.699219 239.875 257.84375 Z M 239.875 257.84375 " fill-opacity="1" fill-rule="nonzero"></path><g clip-path="url(#c14d6c78c2)"><path fill="#fafafa" d="M 117.828125 46.898438 C 132.589844 41.351562 148.007812 38.226562 163.472656 36.5625 C 179.046875 35.648438 194.667969 36.351562 209.851562 39.347656 C 219.433594 41.535156 228.804688 44.398438 237.894531 48.019531 C 248.464844 41.613281 260.15625 35.804688 273.125 30.804688 C 271.277344 29.738281 269.453125 28.59375 267.554688 27.601562 C 251.042969 19.324219 233.363281 13.566406 215.292969 10.207031 C 197.117188 7.292969 178.65625 7.003906 160.503906 9.167969 C 142.40625 11.847656 124.699219 16.824219 108.242188 24.503906 C 91.941406 32.472656 76.632812 42.289062 63.351562 54.371094 C 50.332031 66.742188 39.058594 80.699219 29.96875 95.90625 C 21.324219 111.398438 14.945312 127.90625 11.089844 144.859375 C 7.496094 161.914062 6.820312 179.308594 8.355469 196.207031 C 9.761719 187.746094 10.101562 179.359375 12.472656 171.210938 L 13.851562 165.089844 L 14.527344 162.042969 L 15.492188 159.074219 L 19.398438 147.253906 C 25.515625 131.863281 33.09375 117.28125 42.78125 104.238281 C 52.597656 91.320312 63.898438 79.761719 76.527344 69.996094 C 89.367188 60.59375 103.191406 52.703125 117.828125 46.898438 Z M 117.828125 46.898438 " fill-opacity="1" fill-rule="nonzero"></path></g><g clip-path="url(#c263269e43)"><path fill="#fafafa" d="M 364.132812 155.742188 C 360.355469 137.75 354.210938 120.199219 345.566406 103.871094 C 344.527344 102.023438 343.355469 100.226562 342.234375 98.402344 C 337.519531 111.503906 331.949219 123.351562 325.777344 134.078125 C 329.578125 143.0625 332.652344 152.359375 335.019531 161.863281 C 338.355469 176.992188 339.421875 192.5625 338.847656 208.160156 C 338.535156 212.039062 337.988281 215.894531 337.597656 219.773438 C 337.339844 221.699219 337.261719 223.679688 336.871094 225.582031 L 335.644531 231.308594 L 334.472656 237.0625 C 334.136719 239.015625 333.691406 240.917969 333.042969 242.765625 L 329.554688 254.015625 C 324.085938 268.78125 316.507812 282.761719 307.339844 295.835938 C 297.863281 308.644531 286.585938 320.234375 273.878906 330.335938 C 261.070312 340.308594 246.667969 348.253906 231.410156 354.683594 L 219.691406 358.851562 L 216.722656 359.890625 L 213.703125 360.648438 L 207.636719 362.15625 C 199.5625 364.683594 191.152344 365.257812 182.742188 366.84375 C 199.695312 367.988281 217.035156 366.949219 234.039062 362.992188 C 250.914062 358.746094 267.292969 352.003906 282.578125 343.042969 C 297.550781 333.59375 311.273438 322.03125 323.355469 308.722656 C 335.125 295.132812 344.628906 279.636719 352.234375 263.15625 C 359.550781 246.515625 364.105469 228.707031 366.398438 210.554688 C 368.167969 192.300781 367.441406 173.839844 364.132812 155.742188 Z M 364.132812 155.742188 " fill-opacity="1" fill-rule="nonzero"></path></g><g clip-path="url(#fd43fadb41)"><g transform="matrix(1, 0, 0, 1, 238, 119)"><g clip-path="url(#f3eacbb4e3)"><g clip-path="url(#0cd5ea2dde)"><path fill="#fafafa" d="M 0.632812 0.832031 L 15.917969 0.832031 L 15.917969 18.324219 L 0.632812 18.324219 Z M 0.632812 0.832031 " fill-opacity="1" fill-rule="nonzero"></path></g></g></g></g></svg></svg></g></g></svg></g></svg>