<svg xmlns="http://www.w3.org/2000/svg" xmlns:xlink="http://www.w3.org/1999/xlink" width="500" zoomAndPan="magnify" viewBox="0 0 375 374.999991" height="500" preserveAspectRatio="xMidYMid meet" version="1.0"><path fill="#ffffff" d="M 187.5 0 C 83.949219 0 0 83.949219 0 187.5 C 0 291.050781 83.949219 375 187.5 375 C 291.050781 375 375 291.050781 375 187.5 C 375 83.949219 291.050781 0 187.5 0 Z M 219.058594 286.761719 C 219.058594 290.664062 215.347656 292.914062 207.921875 292.914062 L 167.078125 292.914062 C 160.019531 292.914062 155.941406 290.65625 155.941406 286.761719 L 155.941406 155.496094 C 155.941406 151.394531 160.027344 149.347656 167.078125 149.347656 L 207.921875 149.347656 C 215.347656 149.347656 219.058594 151.402344 219.058594 155.496094 Z M 187.5 135.359375 C 169.066406 135.359375 154.109375 120.414062 154.109375 101.976562 C 154.109375 83.542969 169.058594 68.585938 187.5 68.585938 C 205.941406 68.585938 220.890625 83.535156 220.890625 101.976562 C 220.890625 120.421875 205.941406 135.359375 187.5 135.359375 Z M 187.5 135.359375 " fill-opacity="1" fill-rule="nonzero"/><path fill="#666667" d="M 340.570312 33.1875 L 316.925781 33.1875 L 316.925781 60.980469 C 316.925781 75.914062 304.480469 88.355469 289.546875 88.355469 L 287.886719 88.355469 C 272.953125 88.355469 260.507812 75.914062 260.507812 60.980469 L 260.507812 33.1875 L 111.585938 33.1875 L 111.585938 60.980469 C 111.585938 75.914062 99.144531 88.355469 84.210938 88.355469 L 82.550781 88.355469 C 67.617188 88.355469 55.171875 75.914062 55.171875 60.980469 L 55.171875 33.1875 L 34.429688 33.1875 C 15.761719 33.1875 0.828125 48.121094 0.828125 66.785156 L 0.828125 341.398438 C 0.828125 360.066406 15.761719 375 34.429688 375 L 299.503906 375 L 303.234375 374.171875 C 304.066406 373.753906 305.308594 372.925781 306.140625 372.097656 L 367.949219 306.96875 C 367.949219 306.96875 367.949219 306.554688 368.363281 306.554688 C 372.097656 302.820312 374.171875 297.429688 374.171875 292.035156 L 374.171875 66.785156 C 374.171875 48.121094 359.238281 33.1875 340.570312 33.1875 Z M 355.089844 294.9375 L 298.257812 354.257812 L 298.257812 309.457031 C 298.257812 300.746094 305.308594 293.695312 314.019531 293.695312 L 355.917969 293.695312 C 355.503906 294.109375 355.089844 294.523438 355.089844 294.9375 Z M 356.332031 275.855469 L 314.019531 275.855469 C 295.355469 275.855469 280.421875 290.789062 280.421875 309.457031 L 280.421875 356.746094 L 34.429688 356.746094 C 25.71875 356.746094 18.667969 349.695312 18.667969 340.984375 L 18.667969 126.9375 L 355.917969 126.9375 L 355.917969 275.855469 Z M 356.332031 275.855469 " fill-opacity="1" fill-rule="nonzero"/><path fill="#666667" d="M 84.210938 76.328125 C 92.921875 76.328125 99.972656 69.277344 99.972656 60.5625 L 99.972656 15.761719 C 99.972656 7.050781 92.921875 0 84.210938 0 L 82.550781 0 C 73.839844 0 66.785156 7.050781 66.785156 15.761719 L 66.785156 60.5625 C 66.785156 69.277344 73.839844 76.328125 82.550781 76.328125 Z M 84.210938 76.328125 " fill-opacity="1" fill-rule="nonzero"/><path fill="#666667" d="M 289.546875 76.328125 C 298.257812 76.328125 305.308594 69.277344 305.308594 60.5625 L 305.308594 15.761719 C 305.308594 7.050781 298.257812 0 289.546875 0 L 287.886719 0 C 279.175781 0 272.125 7.050781 272.125 15.761719 L 272.125 60.5625 C 272.125 69.277344 279.175781 76.328125 287.886719 76.328125 Z M 289.546875 76.328125 " fill-opacity="1" fill-rule="nonzero"/><path fill="#666667" d="M 65.128906 164.269531 L 96.652344 164.269531 L 96.652344 195.796875 L 65.128906 195.796875 Z M 65.128906 164.269531 " fill-opacity="1" fill-rule="nonzero"/><path fill="#666667" d="M 136.476562 164.269531 L 168.003906 164.269531 L 168.003906 195.796875 L 136.476562 195.796875 Z M 136.476562 164.269531 " fill-opacity="1" fill-rule="nonzero"/><path fill="#666667" d="M 207.828125 164.269531 L 239.351562 164.269531 L 239.351562 195.796875 L 207.828125 195.796875 Z M 207.828125 164.269531 " fill-opacity="1" fill-rule="nonzero"/><path fill="#666667" d="M 278.761719 164.269531 L 310.289062 164.269531 L 310.289062 195.796875 L 278.761719 195.796875 Z M 278.761719 164.269531 " fill-opacity="1" fill-rule="nonzero"/><path fill="#666667" d="M 65.128906 224.835938 L 96.652344 224.835938 L 96.652344 256.359375 L 65.128906 256.359375 Z M 65.128906 224.835938 " fill-opacity="1" fill-rule="nonzero"/><path fill="#666667" d="M 136.476562 224.835938 L 168.003906 224.835938 L 168.003906 256.359375 L 136.476562 256.359375 Z M 136.476562 224.835938 " fill-opacity="1" fill-rule="nonzero"/><path fill="#666667" d="M 207.828125 224.835938 L 239.351562 224.835938 L 239.351562 256.359375 L 207.828125 256.359375 Z M 207.828125 224.835938 " fill-opacity="1" fill-rule="nonzero"/><path fill="#666667" d="M 278.761719 224.835938 L 310.289062 224.835938 L 310.289062 256.359375 L 278.761719 256.359375 Z M 278.761719 224.835938 " fill-opacity="1" fill-rule="nonzero"/><path fill="#666667" d="M 65.128906 285.8125 L 96.652344 285.8125 L 96.652344 317.339844 L 65.128906 317.339844 Z M 65.128906 285.8125 " fill-opacity="1" fill-rule="nonzero"/><path fill="#666667" d="M 136.476562 285.8125 L 168.003906 285.8125 L 168.003906 317.339844 L 136.476562 317.339844 Z M 136.476562 285.8125 " fill-opacity="1" fill-rule="nonzero"/><path fill="#666667" d="M 207.828125 285.8125 L 239.351562 285.8125 L 239.351562 317.339844 L 207.828125 317.339844 Z M 207.828125 285.8125 " fill-opacity="1" fill-rule="nonzero"/></svg>