<svg xmlns="http://www.w3.org/2000/svg" xmlns:xlink="http://www.w3.org/1999/xlink" width="500" zoomAndPan="magnify" viewBox="0 0 375 374.999991" height="500" preserveAspectRatio="xMidYMid meet" version="1.0"><defs><clipPath id="223a189c9c"><path d="M 328 95.625 L 375 95.625 L 375 148 L 328 148 Z M 328 95.625 " clip-rule="nonzero"/></clipPath><clipPath id="f06bffe69c"><path d="M 0 95.625 L 47 95.625 L 47 148 L 0 148 Z M 0 95.625 " clip-rule="nonzero"/></clipPath><clipPath id="e979fd9c26"><path d="M 0 176 L 375 176 L 375 279.375 L 0 279.375 Z M 0 176 " clip-rule="nonzero"/></clipPath><clipPath id="fe2991d54f"><path d="M 27 229 L 40 229 L 40 279.375 L 27 279.375 Z M 27 229 " clip-rule="nonzero"/></clipPath><clipPath id="84392bac49"><path d="M 71 245 L 84 245 L 84 279.375 L 71 279.375 Z M 71 245 " clip-rule="nonzero"/></clipPath><clipPath id="5aad7a1f90"><path d="M 115 229 L 128 229 L 128 279.375 L 115 279.375 Z M 115 229 " clip-rule="nonzero"/></clipPath><clipPath id="c4563e7fb0"><path d="M 159 245 L 172 245 L 172 279.375 L 159 279.375 Z M 159 245 " clip-rule="nonzero"/></clipPath><clipPath id="4ae17069de"><path d="M 203 229 L 216 229 L 216 279.375 L 203 279.375 Z M 203 229 " clip-rule="nonzero"/></clipPath><clipPath id="7e2f3d85d9"><path d="M 247 245 L 260 245 L 260 279.375 L 247 279.375 Z M 247 245 " clip-rule="nonzero"/></clipPath><clipPath id="332157375c"><path d="M 291 229 L 304 229 L 304 279.375 L 291 279.375 Z M 291 229 " clip-rule="nonzero"/></clipPath><clipPath id="b2537fda5e"><path d="M 335 229 L 348 229 L 348 279.375 L 335 279.375 Z M 335 229 " clip-rule="nonzero"/></clipPath></defs><path fill="#666667" d="M 334.421875 127.890625 L 40.578125 127.890625 C 40.164062 127.890625 39.757812 127.847656 39.351562 127.769531 C 38.945312 127.6875 38.550781 127.570312 38.167969 127.410156 C 37.789062 127.253906 37.425781 127.058594 37.082031 126.828125 C 36.738281 126.597656 36.417969 126.335938 36.128906 126.046875 C 35.835938 125.753906 35.574219 125.433594 35.34375 125.089844 C 35.113281 124.746094 34.921875 124.386719 34.761719 124.003906 C 34.605469 123.621094 34.484375 123.226562 34.402344 122.820312 C 34.324219 122.417969 34.28125 122.007812 34.28125 121.59375 C 34.28125 121.179688 34.324219 120.769531 34.402344 120.367188 C 34.484375 119.960938 34.605469 119.566406 34.761719 119.183594 C 34.921875 118.804688 35.113281 118.441406 35.34375 118.097656 C 35.574219 117.753906 35.835938 117.433594 36.128906 117.140625 C 36.417969 116.851562 36.738281 116.589844 37.082031 116.359375 C 37.425781 116.128906 37.789062 115.9375 38.167969 115.777344 C 38.550781 115.621094 38.945312 115.5 39.351562 115.417969 C 39.757812 115.339844 40.164062 115.296875 40.578125 115.296875 L 334.421875 115.296875 C 334.835938 115.296875 335.242188 115.339844 335.648438 115.417969 C 336.054688 115.5 336.449219 115.621094 336.832031 115.777344 C 337.210938 115.9375 337.574219 116.128906 337.917969 116.359375 C 338.261719 116.589844 338.582031 116.851562 338.871094 117.140625 C 339.164062 117.433594 339.425781 117.753906 339.65625 118.097656 C 339.886719 118.441406 340.078125 118.804688 340.238281 119.183594 C 340.394531 119.566406 340.515625 119.960938 340.597656 120.367188 C 340.675781 120.769531 340.714844 121.179688 340.714844 121.59375 C 340.714844 122.007812 340.675781 122.417969 340.597656 122.820312 C 340.515625 123.226562 340.394531 123.621094 340.238281 124.003906 C 340.078125 124.386719 339.886719 124.746094 339.65625 125.089844 C 339.425781 125.433594 339.164062 125.753906 338.871094 126.046875 C 338.582031 126.335938 338.261719 126.597656 337.917969 126.828125 C 337.574219 127.058594 337.210938 127.253906 336.832031 127.410156 C 336.449219 127.570312 336.054688 127.6875 335.648438 127.769531 C 335.242188 127.847656 334.835938 127.890625 334.421875 127.890625 Z M 334.421875 127.890625 " fill-opacity="1" fill-rule="nonzero"/><g clip-path="url(#223a189c9c)"><path fill="#666667" d="M 334.421875 147.53125 C 334.007812 147.53125 333.597656 147.492188 333.191406 147.410156 C 332.789062 147.328125 332.394531 147.210938 332.011719 147.050781 C 331.628906 146.894531 331.265625 146.699219 330.921875 146.46875 C 330.578125 146.242188 330.261719 145.980469 329.96875 145.6875 C 329.675781 145.394531 329.417969 145.078125 329.1875 144.734375 C 328.957031 144.390625 328.761719 144.027344 328.605469 143.644531 C 328.445312 143.261719 328.328125 142.871094 328.246094 142.464844 C 328.167969 142.058594 328.125 141.648438 328.125 141.234375 L 328.125 101.890625 C 328.125 101.335938 328.195312 100.792969 328.339844 100.257812 C 328.484375 99.726562 328.691406 99.21875 328.96875 98.742188 C 329.246094 98.261719 329.578125 97.828125 329.96875 97.4375 C 330.359375 97.046875 330.792969 96.710938 331.273438 96.4375 C 331.75 96.160156 332.257812 95.949219 332.792969 95.808594 C 333.324219 95.664062 333.867188 95.59375 334.421875 95.59375 C 334.972656 95.59375 335.515625 95.664062 336.050781 95.804688 C 336.585938 95.949219 337.089844 96.160156 337.570312 96.433594 L 371.644531 116.109375 C 372.121094 116.386719 372.558594 116.71875 372.949219 117.109375 C 373.339844 117.5 373.671875 117.933594 373.949219 118.414062 C 374.226562 118.890625 374.4375 119.398438 374.578125 119.933594 C 374.722656 120.464844 374.792969 121.007812 374.792969 121.5625 C 374.792969 122.113281 374.722656 122.660156 374.578125 123.191406 C 374.4375 123.726562 374.226562 124.234375 373.949219 124.710938 C 373.671875 125.191406 373.339844 125.625 372.949219 126.015625 C 372.558594 126.40625 372.121094 126.738281 371.644531 127.015625 L 337.570312 146.6875 C 336.59375 147.25 335.546875 147.53125 334.421875 147.53125 Z M 340.714844 112.796875 L 340.714844 130.335938 L 355.90625 121.5625 Z M 340.714844 112.796875 " fill-opacity="1" fill-rule="nonzero"/></g><g clip-path="url(#f06bffe69c)"><path fill="#666667" d="M 40.578125 147.53125 C 39.453125 147.53125 38.40625 147.25 37.429688 146.6875 L 3.355469 127.015625 C 2.878906 126.738281 2.441406 126.40625 2.050781 126.015625 C 1.660156 125.625 1.328125 125.191406 1.050781 124.710938 C 0.773438 124.234375 0.5625 123.726562 0.421875 123.191406 C 0.277344 122.660156 0.207031 122.113281 0.207031 121.5625 C 0.207031 121.007812 0.277344 120.464844 0.421875 119.933594 C 0.5625 119.398438 0.773438 118.890625 1.050781 118.414062 C 1.328125 117.933594 1.660156 117.5 2.050781 117.109375 C 2.441406 116.71875 2.878906 116.386719 3.355469 116.109375 L 37.429688 96.433594 C 37.910156 96.160156 38.414062 95.949219 38.949219 95.804688 C 39.484375 95.664062 40.027344 95.59375 40.578125 95.59375 C 41.132812 95.59375 41.675781 95.664062 42.207031 95.808594 C 42.742188 95.949219 43.25 96.160156 43.726562 96.4375 C 44.207031 96.710938 44.640625 97.046875 45.03125 97.4375 C 45.421875 97.828125 45.753906 98.261719 46.03125 98.742188 C 46.308594 99.21875 46.515625 99.726562 46.660156 100.257812 C 46.804688 100.792969 46.875 101.335938 46.875 101.890625 L 46.875 141.234375 C 46.875 141.648438 46.832031 142.058594 46.753906 142.464844 C 46.671875 142.871094 46.554688 143.261719 46.394531 143.644531 C 46.238281 144.027344 46.042969 144.390625 45.8125 144.734375 C 45.582031 145.078125 45.324219 145.394531 45.03125 145.6875 C 44.738281 145.980469 44.421875 146.242188 44.078125 146.46875 C 43.734375 146.699219 43.371094 146.894531 42.988281 147.050781 C 42.605469 147.210938 42.210938 147.328125 41.808594 147.410156 C 41.402344 147.492188 40.992188 147.53125 40.578125 147.53125 Z M 19.09375 121.5625 L 34.28125 130.335938 L 34.28125 112.796875 Z M 19.09375 121.5625 " fill-opacity="1" fill-rule="nonzero"/></g><g clip-path="url(#e979fd9c26)"><path fill="#666667" d="M 368.164062 279.328125 L 6.835938 279.328125 C 6.421875 279.328125 6.011719 279.289062 5.605469 279.207031 C 5.203125 279.125 4.808594 279.007812 4.425781 278.847656 C 4.042969 278.691406 3.679688 278.496094 3.335938 278.265625 C 2.992188 278.035156 2.675781 277.777344 2.382812 277.484375 C 2.089844 277.191406 1.828125 276.875 1.601562 276.53125 C 1.371094 276.1875 1.175781 275.824219 1.019531 275.441406 C 0.859375 275.058594 0.742188 274.664062 0.660156 274.261719 C 0.578125 273.855469 0.539062 273.445312 0.539062 273.03125 L 0.539062 182.800781 C 0.539062 182.386719 0.578125 181.980469 0.660156 181.574219 C 0.742188 181.167969 0.859375 180.773438 1.019531 180.394531 C 1.175781 180.011719 1.371094 179.648438 1.601562 179.304688 C 1.828125 178.960938 2.089844 178.644531 2.382812 178.351562 C 2.675781 178.058594 2.992188 177.796875 3.335938 177.566406 C 3.679688 177.335938 4.042969 177.144531 4.425781 176.984375 C 4.808594 176.828125 5.203125 176.707031 5.605469 176.628906 C 6.011719 176.546875 6.421875 176.507812 6.835938 176.507812 L 368.164062 176.507812 C 368.578125 176.507812 368.988281 176.546875 369.394531 176.628906 C 369.796875 176.707031 370.191406 176.828125 370.574219 176.984375 C 370.957031 177.144531 371.320312 177.335938 371.664062 177.566406 C 372.007812 177.796875 372.324219 178.058594 372.617188 178.351562 C 372.910156 178.644531 373.171875 178.960938 373.398438 179.304688 C 373.628906 179.648438 373.824219 180.011719 373.980469 180.394531 C 374.140625 180.773438 374.257812 181.167969 374.339844 181.574219 C 374.421875 181.980469 374.460938 182.386719 374.460938 182.800781 L 374.460938 273.03125 C 374.460938 273.445312 374.421875 273.855469 374.339844 274.261719 C 374.257812 274.664062 374.140625 275.058594 373.980469 275.441406 C 373.824219 275.824219 373.628906 276.1875 373.398438 276.53125 C 373.171875 276.875 372.910156 277.191406 372.617188 277.484375 C 372.324219 277.777344 372.007812 278.035156 371.664062 278.265625 C 371.320312 278.496094 370.957031 278.691406 370.574219 278.847656 C 370.191406 279.007812 369.796875 279.125 369.394531 279.207031 C 368.988281 279.289062 368.578125 279.328125 368.164062 279.328125 Z M 13.128906 266.738281 L 361.871094 266.738281 L 361.871094 189.097656 L 13.128906 189.097656 Z M 13.128906 266.738281 " fill-opacity="1" fill-rule="nonzero"/></g><g clip-path="url(#fe2991d54f)"><path fill="#666667" d="M 33.339844 279.328125 C 32.925781 279.328125 32.515625 279.289062 32.109375 279.207031 C 31.707031 279.125 31.3125 279.007812 30.929688 278.847656 C 30.546875 278.691406 30.183594 278.496094 29.839844 278.265625 C 29.496094 278.035156 29.179688 277.777344 28.886719 277.484375 C 28.59375 277.191406 28.335938 276.875 28.105469 276.53125 C 27.875 276.1875 27.679688 275.824219 27.523438 275.441406 C 27.363281 275.058594 27.246094 274.664062 27.164062 274.261719 C 27.082031 273.855469 27.042969 273.445312 27.042969 273.03125 L 27.042969 236.046875 C 27.042969 235.632812 27.082031 235.222656 27.164062 234.816406 C 27.246094 234.414062 27.363281 234.019531 27.523438 233.636719 C 27.679688 233.253906 27.875 232.890625 28.105469 232.546875 C 28.335938 232.203125 28.59375 231.886719 28.886719 231.59375 C 29.179688 231.300781 29.496094 231.042969 29.839844 230.8125 C 30.183594 230.582031 30.546875 230.386719 30.929688 230.230469 C 31.3125 230.070312 31.707031 229.953125 32.109375 229.871094 C 32.515625 229.789062 32.925781 229.75 33.339844 229.75 C 33.753906 229.75 34.160156 229.789062 34.566406 229.871094 C 34.972656 229.953125 35.367188 230.070312 35.746094 230.230469 C 36.128906 230.386719 36.492188 230.582031 36.835938 230.8125 C 37.179688 231.042969 37.5 231.300781 37.789062 231.59375 C 38.082031 231.886719 38.34375 232.203125 38.574219 232.546875 C 38.804688 232.890625 38.996094 233.253906 39.15625 233.636719 C 39.3125 234.019531 39.433594 234.414062 39.511719 234.816406 C 39.59375 235.222656 39.632812 235.632812 39.632812 236.046875 L 39.632812 273.03125 C 39.632812 273.445312 39.59375 273.855469 39.511719 274.261719 C 39.433594 274.664062 39.3125 275.058594 39.15625 275.441406 C 38.996094 275.824219 38.804688 276.1875 38.574219 276.53125 C 38.34375 276.875 38.082031 277.191406 37.789062 277.484375 C 37.5 277.777344 37.179688 278.035156 36.835938 278.265625 C 36.492188 278.496094 36.128906 278.691406 35.746094 278.847656 C 35.367188 279.007812 34.972656 279.125 34.566406 279.207031 C 34.160156 279.289062 33.753906 279.328125 33.339844 279.328125 Z M 33.339844 279.328125 " fill-opacity="1" fill-rule="nonzero"/></g><g clip-path="url(#84392bac49)"><path fill="#666667" d="M 77.382812 279.328125 C 76.96875 279.328125 76.5625 279.289062 76.15625 279.207031 C 75.75 279.125 75.355469 279.007812 74.972656 278.847656 C 74.59375 278.691406 74.230469 278.496094 73.886719 278.265625 C 73.542969 278.035156 73.222656 277.777344 72.933594 277.484375 C 72.640625 277.191406 72.378906 276.875 72.148438 276.53125 C 71.917969 276.1875 71.726562 275.824219 71.566406 275.441406 C 71.410156 275.058594 71.289062 274.664062 71.210938 274.261719 C 71.128906 273.855469 71.089844 273.445312 71.089844 273.03125 L 71.089844 251.988281 C 71.089844 251.574219 71.128906 251.167969 71.210938 250.761719 C 71.289062 250.355469 71.410156 249.960938 71.566406 249.582031 C 71.726562 249.199219 71.917969 248.835938 72.148438 248.492188 C 72.378906 248.148438 72.640625 247.832031 72.933594 247.539062 C 73.222656 247.246094 73.542969 246.984375 73.886719 246.753906 C 74.230469 246.523438 74.59375 246.332031 74.972656 246.171875 C 75.355469 246.015625 75.75 245.894531 76.15625 245.816406 C 76.5625 245.734375 76.96875 245.695312 77.382812 245.695312 C 77.796875 245.695312 78.207031 245.734375 78.613281 245.816406 C 79.015625 245.894531 79.410156 246.015625 79.792969 246.171875 C 80.175781 246.332031 80.539062 246.523438 80.882812 246.753906 C 81.226562 246.984375 81.542969 247.246094 81.835938 247.539062 C 82.128906 247.832031 82.386719 248.148438 82.617188 248.492188 C 82.847656 248.835938 83.042969 249.199219 83.199219 249.582031 C 83.359375 249.960938 83.476562 250.355469 83.558594 250.761719 C 83.640625 251.167969 83.679688 251.574219 83.679688 251.988281 L 83.679688 273.039062 C 83.679688 273.453125 83.636719 273.863281 83.558594 274.265625 C 83.476562 274.671875 83.355469 275.066406 83.199219 275.445312 C 83.039062 275.828125 82.84375 276.191406 82.617188 276.535156 C 82.386719 276.878906 82.125 277.195312 81.832031 277.488281 C 81.539062 277.777344 81.222656 278.039062 80.878906 278.269531 C 80.535156 278.496094 80.171875 278.691406 79.792969 278.847656 C 79.410156 279.007812 79.015625 279.125 78.609375 279.207031 C 78.207031 279.289062 77.796875 279.328125 77.382812 279.328125 Z M 77.382812 279.328125 " fill-opacity="1" fill-rule="nonzero"/></g><g clip-path="url(#5aad7a1f90)"><path fill="#666667" d="M 121.398438 279.328125 C 120.984375 279.328125 120.574219 279.289062 120.167969 279.207031 C 119.761719 279.125 119.371094 279.007812 118.988281 278.847656 C 118.605469 278.691406 118.242188 278.496094 117.898438 278.265625 C 117.554688 278.035156 117.238281 277.777344 116.945312 277.484375 C 116.652344 277.191406 116.390625 276.875 116.164062 276.53125 C 115.933594 276.1875 115.738281 275.824219 115.582031 275.441406 C 115.421875 275.058594 115.304688 274.664062 115.222656 274.261719 C 115.140625 273.855469 115.101562 273.445312 115.101562 273.03125 L 115.101562 236.046875 C 115.101562 235.632812 115.140625 235.222656 115.222656 234.816406 C 115.304688 234.414062 115.421875 234.019531 115.582031 233.636719 C 115.738281 233.253906 115.933594 232.890625 116.164062 232.546875 C 116.390625 232.203125 116.652344 231.886719 116.945312 231.59375 C 117.238281 231.300781 117.554688 231.042969 117.898438 230.8125 C 118.242188 230.582031 118.605469 230.386719 118.988281 230.230469 C 119.371094 230.070312 119.761719 229.953125 120.167969 229.871094 C 120.574219 229.789062 120.984375 229.75 121.398438 229.75 C 121.8125 229.75 122.21875 229.789062 122.625 229.871094 C 123.03125 229.953125 123.425781 230.070312 123.804688 230.230469 C 124.1875 230.386719 124.550781 230.582031 124.894531 230.8125 C 125.238281 231.042969 125.554688 231.300781 125.847656 231.59375 C 126.140625 231.886719 126.402344 232.203125 126.632812 232.546875 C 126.863281 232.890625 127.054688 233.253906 127.214844 233.636719 C 127.371094 234.019531 127.492188 234.414062 127.570312 234.816406 C 127.652344 235.222656 127.691406 235.632812 127.691406 236.046875 L 127.691406 273.03125 C 127.691406 273.445312 127.652344 273.855469 127.570312 274.261719 C 127.492188 274.664062 127.371094 275.058594 127.214844 275.441406 C 127.054688 275.824219 126.863281 276.1875 126.632812 276.53125 C 126.402344 276.875 126.140625 277.191406 125.847656 277.484375 C 125.554688 277.777344 125.238281 278.035156 124.894531 278.265625 C 124.550781 278.496094 124.1875 278.691406 123.804688 278.847656 C 123.425781 279.007812 123.03125 279.125 122.625 279.207031 C 122.21875 279.289062 121.8125 279.328125 121.398438 279.328125 Z M 121.398438 279.328125 " fill-opacity="1" fill-rule="nonzero"/></g><g clip-path="url(#c4563e7fb0)"><path fill="#666667" d="M 165.464844 279.328125 C 165.050781 279.328125 164.644531 279.289062 164.238281 279.207031 C 163.832031 279.125 163.4375 279.007812 163.054688 278.847656 C 162.675781 278.691406 162.3125 278.496094 161.96875 278.265625 C 161.625 278.035156 161.304688 277.777344 161.015625 277.484375 C 160.722656 277.191406 160.460938 276.875 160.230469 276.53125 C 160 276.1875 159.808594 275.824219 159.648438 275.441406 C 159.492188 275.058594 159.371094 274.664062 159.292969 274.261719 C 159.210938 273.855469 159.171875 273.445312 159.171875 273.03125 L 159.171875 251.988281 C 159.171875 251.574219 159.210938 251.167969 159.292969 250.761719 C 159.371094 250.355469 159.492188 249.960938 159.648438 249.582031 C 159.808594 249.199219 160 248.835938 160.230469 248.492188 C 160.460938 248.148438 160.722656 247.832031 161.015625 247.539062 C 161.304688 247.246094 161.625 246.984375 161.96875 246.753906 C 162.3125 246.523438 162.675781 246.332031 163.054688 246.171875 C 163.4375 246.015625 163.832031 245.894531 164.238281 245.816406 C 164.644531 245.734375 165.050781 245.695312 165.464844 245.695312 C 165.878906 245.695312 166.289062 245.734375 166.695312 245.816406 C 167.097656 245.894531 167.492188 246.015625 167.875 246.171875 C 168.257812 246.332031 168.621094 246.523438 168.964844 246.753906 C 169.308594 246.984375 169.625 247.246094 169.917969 247.539062 C 170.210938 247.832031 170.46875 248.148438 170.699219 248.492188 C 170.929688 248.835938 171.125 249.199219 171.28125 249.582031 C 171.441406 249.960938 171.558594 250.355469 171.640625 250.761719 C 171.722656 251.167969 171.761719 251.574219 171.761719 251.988281 L 171.761719 273.039062 C 171.761719 273.453125 171.71875 273.863281 171.640625 274.265625 C 171.558594 274.671875 171.4375 275.066406 171.28125 275.445312 C 171.121094 275.828125 170.925781 276.191406 170.699219 276.535156 C 170.46875 276.878906 170.207031 277.195312 169.914062 277.488281 C 169.621094 277.777344 169.304688 278.039062 168.960938 278.269531 C 168.617188 278.496094 168.253906 278.691406 167.875 278.847656 C 167.492188 279.007812 167.097656 279.125 166.691406 279.207031 C 166.289062 279.289062 165.878906 279.328125 165.464844 279.328125 Z M 165.464844 279.328125 " fill-opacity="1" fill-rule="nonzero"/></g><g clip-path="url(#4ae17069de)"><path fill="#666667" d="M 209.535156 279.328125 C 209.121094 279.328125 208.710938 279.289062 208.304688 279.207031 C 207.902344 279.125 207.507812 279.007812 207.125 278.847656 C 206.742188 278.691406 206.378906 278.496094 206.035156 278.265625 C 205.691406 278.035156 205.375 277.777344 205.082031 277.484375 C 204.789062 277.191406 204.53125 276.875 204.300781 276.53125 C 204.070312 276.1875 203.875 275.824219 203.71875 275.441406 C 203.558594 275.058594 203.441406 274.664062 203.359375 274.261719 C 203.277344 273.855469 203.238281 273.445312 203.238281 273.03125 L 203.238281 236.046875 C 203.238281 235.632812 203.277344 235.222656 203.359375 234.816406 C 203.441406 234.414062 203.558594 234.019531 203.71875 233.636719 C 203.875 233.253906 204.070312 232.890625 204.300781 232.546875 C 204.53125 232.203125 204.789062 231.886719 205.082031 231.59375 C 205.375 231.300781 205.691406 231.042969 206.035156 230.8125 C 206.378906 230.582031 206.742188 230.386719 207.125 230.230469 C 207.507812 230.070312 207.902344 229.953125 208.304688 229.871094 C 208.710938 229.789062 209.121094 229.75 209.535156 229.75 C 209.949219 229.75 210.355469 229.789062 210.761719 229.871094 C 211.167969 229.953125 211.5625 230.070312 211.945312 230.230469 C 212.324219 230.386719 212.6875 230.582031 213.03125 230.8125 C 213.375 231.042969 213.695312 231.300781 213.984375 231.59375 C 214.277344 231.886719 214.539062 232.203125 214.769531 232.546875 C 215 232.890625 215.191406 233.253906 215.351562 233.636719 C 215.507812 234.019531 215.628906 234.414062 215.707031 234.816406 C 215.789062 235.222656 215.828125 235.632812 215.828125 236.046875 L 215.828125 273.03125 C 215.828125 273.445312 215.789062 273.855469 215.707031 274.261719 C 215.628906 274.664062 215.507812 275.058594 215.351562 275.441406 C 215.191406 275.824219 215 276.1875 214.769531 276.53125 C 214.539062 276.875 214.277344 277.191406 213.984375 277.484375 C 213.695312 277.777344 213.375 278.035156 213.03125 278.265625 C 212.6875 278.496094 212.324219 278.691406 211.945312 278.847656 C 211.5625 279.007812 211.167969 279.125 210.761719 279.207031 C 210.355469 279.289062 209.949219 279.328125 209.535156 279.328125 Z M 209.535156 279.328125 " fill-opacity="1" fill-rule="nonzero"/></g><g clip-path="url(#7e2f3d85d9)"><path fill="#666667" d="M 253.601562 279.328125 C 253.1875 279.328125 252.78125 279.289062 252.375 279.207031 C 251.96875 279.125 251.574219 279.007812 251.195312 278.847656 C 250.8125 278.691406 250.449219 278.496094 250.105469 278.265625 C 249.761719 278.035156 249.445312 277.777344 249.152344 277.484375 C 248.859375 277.191406 248.597656 276.875 248.367188 276.53125 C 248.136719 276.1875 247.945312 275.824219 247.785156 275.441406 C 247.628906 275.058594 247.507812 274.664062 247.429688 274.261719 C 247.347656 273.855469 247.308594 273.445312 247.308594 273.03125 L 247.308594 251.988281 C 247.308594 251.574219 247.347656 251.167969 247.429688 250.761719 C 247.507812 250.355469 247.628906 249.960938 247.785156 249.582031 C 247.945312 249.199219 248.136719 248.835938 248.367188 248.492188 C 248.597656 248.148438 248.859375 247.832031 249.152344 247.539062 C 249.445312 247.246094 249.761719 246.984375 250.105469 246.753906 C 250.449219 246.523438 250.8125 246.332031 251.195312 246.171875 C 251.574219 246.015625 251.96875 245.894531 252.375 245.816406 C 252.78125 245.734375 253.1875 245.695312 253.601562 245.695312 C 254.015625 245.695312 254.425781 245.734375 254.832031 245.816406 C 255.238281 245.894531 255.628906 246.015625 256.011719 246.171875 C 256.394531 246.332031 256.757812 246.523438 257.101562 246.753906 C 257.445312 246.984375 257.761719 247.246094 258.054688 247.539062 C 258.347656 247.832031 258.609375 248.148438 258.835938 248.492188 C 259.066406 248.835938 259.261719 249.199219 259.417969 249.582031 C 259.578125 249.960938 259.695312 250.355469 259.777344 250.761719 C 259.859375 251.167969 259.898438 251.574219 259.898438 251.988281 L 259.898438 273.039062 C 259.898438 273.453125 259.855469 273.863281 259.777344 274.265625 C 259.695312 274.671875 259.574219 275.066406 259.417969 275.445312 C 259.257812 275.828125 259.0625 276.191406 258.835938 276.535156 C 258.605469 276.878906 258.34375 277.195312 258.050781 277.488281 C 257.757812 277.777344 257.441406 278.039062 257.097656 278.269531 C 256.753906 278.496094 256.390625 278.691406 256.011719 278.847656 C 255.628906 279.007812 255.234375 279.125 254.828125 279.207031 C 254.425781 279.289062 254.015625 279.328125 253.601562 279.328125 Z M 253.601562 279.328125 " fill-opacity="1" fill-rule="nonzero"/></g><g clip-path="url(#332157375c)"><path fill="#666667" d="M 297.617188 279.328125 C 297.203125 279.328125 296.792969 279.289062 296.386719 279.207031 C 295.984375 279.125 295.589844 279.007812 295.207031 278.847656 C 294.824219 278.691406 294.460938 278.496094 294.117188 278.265625 C 293.773438 278.035156 293.457031 277.777344 293.164062 277.484375 C 292.871094 277.191406 292.609375 276.875 292.382812 276.53125 C 292.152344 276.1875 291.957031 275.824219 291.800781 275.441406 C 291.640625 275.058594 291.523438 274.664062 291.441406 274.261719 C 291.359375 273.855469 291.320312 273.445312 291.320312 273.03125 L 291.320312 236.046875 C 291.320312 235.632812 291.359375 235.222656 291.441406 234.816406 C 291.523438 234.414062 291.640625 234.019531 291.800781 233.636719 C 291.957031 233.253906 292.152344 232.890625 292.382812 232.546875 C 292.609375 232.203125 292.871094 231.886719 293.164062 231.59375 C 293.457031 231.300781 293.773438 231.042969 294.117188 230.8125 C 294.460938 230.582031 294.824219 230.386719 295.207031 230.230469 C 295.589844 230.070312 295.984375 229.953125 296.386719 229.871094 C 296.792969 229.789062 297.203125 229.75 297.617188 229.75 C 298.03125 229.75 298.4375 229.789062 298.84375 229.871094 C 299.25 229.953125 299.644531 230.070312 300.023438 230.230469 C 300.40625 230.386719 300.769531 230.582031 301.113281 230.8125 C 301.457031 231.042969 301.777344 231.300781 302.066406 231.59375 C 302.359375 231.886719 302.621094 232.203125 302.851562 232.546875 C 303.082031 232.890625 303.273438 233.253906 303.433594 233.636719 C 303.589844 234.019531 303.710938 234.414062 303.789062 234.816406 C 303.871094 235.222656 303.910156 235.632812 303.910156 236.046875 L 303.910156 273.03125 C 303.910156 273.445312 303.871094 273.855469 303.789062 274.261719 C 303.710938 274.664062 303.589844 275.058594 303.433594 275.441406 C 303.273438 275.824219 303.082031 276.1875 302.851562 276.53125 C 302.621094 276.875 302.359375 277.191406 302.066406 277.484375 C 301.777344 277.777344 301.457031 278.035156 301.113281 278.265625 C 300.769531 278.496094 300.40625 278.691406 300.023438 278.847656 C 299.644531 279.007812 299.25 279.125 298.84375 279.207031 C 298.4375 279.289062 298.03125 279.328125 297.617188 279.328125 Z M 297.617188 279.328125 " fill-opacity="1" fill-rule="nonzero"/></g><g clip-path="url(#b2537fda5e)"><path fill="#666667" d="M 341.660156 279.328125 C 341.246094 279.328125 340.839844 279.289062 340.433594 279.207031 C 340.027344 279.125 339.632812 279.007812 339.25 278.847656 C 338.871094 278.691406 338.507812 278.496094 338.164062 278.265625 C 337.820312 278.035156 337.5 277.777344 337.210938 277.484375 C 336.917969 277.191406 336.65625 276.875 336.425781 276.53125 C 336.195312 276.1875 336.003906 275.824219 335.84375 275.441406 C 335.6875 275.058594 335.566406 274.664062 335.488281 274.261719 C 335.40625 273.855469 335.367188 273.445312 335.367188 273.03125 L 335.367188 236.046875 C 335.367188 235.632812 335.40625 235.222656 335.488281 234.816406 C 335.566406 234.414062 335.6875 234.019531 335.84375 233.636719 C 336.003906 233.253906 336.195312 232.890625 336.425781 232.546875 C 336.65625 232.203125 336.917969 231.886719 337.210938 231.59375 C 337.5 231.300781 337.820312 231.042969 338.164062 230.8125 C 338.507812 230.582031 338.871094 230.386719 339.25 230.230469 C 339.632812 230.070312 340.027344 229.953125 340.433594 229.871094 C 340.839844 229.789062 341.246094 229.75 341.660156 229.75 C 342.074219 229.75 342.484375 229.789062 342.890625 229.871094 C 343.292969 229.953125 343.6875 230.070312 344.070312 230.230469 C 344.453125 230.386719 344.816406 230.582031 345.160156 230.8125 C 345.503906 231.042969 345.820312 231.300781 346.113281 231.59375 C 346.40625 231.886719 346.664062 232.203125 346.894531 232.546875 C 347.125 232.890625 347.320312 233.253906 347.476562 233.636719 C 347.636719 234.019531 347.753906 234.414062 347.835938 234.816406 C 347.917969 235.222656 347.957031 235.632812 347.957031 236.046875 L 347.957031 273.03125 C 347.957031 273.445312 347.917969 273.855469 347.835938 274.261719 C 347.753906 274.664062 347.636719 275.058594 347.476562 275.441406 C 347.320312 275.824219 347.125 276.1875 346.894531 276.53125 C 346.664062 276.875 346.40625 277.191406 346.113281 277.484375 C 345.820312 277.777344 345.503906 278.035156 345.160156 278.265625 C 344.816406 278.496094 344.453125 278.691406 344.070312 278.847656 C 343.6875 279.007812 343.292969 279.125 342.890625 279.207031 C 342.484375 279.289062 342.074219 279.328125 341.660156 279.328125 Z M 341.660156 279.328125 " fill-opacity="1" fill-rule="nonzero"/></g></svg>