<svg xmlns="http://www.w3.org/2000/svg" xmlns:xlink="http://www.w3.org/1999/xlink" width="500" zoomAndPan="magnify" viewBox="0 0 375 374.999991" height="500" preserveAspectRatio="xMidYMid meet" version="1.0"><defs><clipPath id="a21f1a204c"><path d="M 30.46875 0 L 344.71875 0 L 344.71875 375 L 30.46875 375 Z M 30.46875 0 " clip-rule="nonzero"/></clipPath></defs><g clip-path="url(#a21f1a204c)"><path fill="#666667" d="M 39.292969 54.652344 L 133.847656 54.652344 L 133.847656 54.035156 C 133.847656 39.25 139.886719 25.816406 149.617188 16.082031 C 159.359375 6.339844 172.792969 0.300781 187.582031 0.300781 C 202.367188 0.300781 215.800781 6.339844 225.542969 16.082031 C 235.273438 25.816406 241.316406 39.261719 241.316406 54.035156 L 241.316406 54.652344 L 335.867188 54.652344 C 340.714844 54.652344 344.632812 58.585938 344.632812 63.433594 L 344.632812 365.953125 C 344.632812 370.800781 340.703125 374.734375 335.867188 374.734375 L 39.292969 374.734375 C 34.445312 374.734375 30.527344 370.800781 30.527344 365.953125 L 30.527344 63.433594 C 30.527344 58.585938 34.457031 54.652344 39.292969 54.652344 Z M 151.394531 54.652344 L 223.765625 54.652344 L 223.765625 54.035156 C 223.765625 44.097656 219.6875 35.054688 213.128906 28.484375 C 206.574219 21.929688 197.519531 17.847656 187.582031 17.847656 C 177.640625 17.847656 168.585938 21.929688 162.03125 28.484375 C 155.476562 35.054688 151.394531 44.097656 151.394531 54.035156 Z M 178.800781 99.882812 C 178.800781 95.035156 182.730469 91.113281 187.582031 91.113281 C 192.429688 91.113281 196.359375 95.046875 196.359375 99.882812 L 196.359375 130.578125 C 196.359375 134.339844 197.90625 137.765625 200.394531 140.253906 C 202.882812 142.742188 206.308594 144.289062 210.070312 144.289062 C 213.828125 144.289062 217.253906 142.742188 219.742188 140.253906 C 222.230469 137.765625 223.777344 134.339844 223.777344 130.578125 L 223.777344 72.214844 L 48.085938 72.214844 L 48.085938 357.183594 L 242.917969 357.183594 L 327.109375 272.996094 L 327.109375 72.214844 L 241.335938 72.214844 L 241.335938 130.578125 C 241.335938 139.1875 237.820312 147.003906 232.167969 152.667969 C 226.503906 158.328125 218.6875 161.835938 210.09375 161.835938 C 201.484375 161.835938 193.667969 158.316406 188.015625 152.667969 C 182.355469 147.003906 178.835938 139.1875 178.835938 130.578125 L 178.835938 99.882812 Z M 87.824219 290.121094 C 82.976562 290.121094 79.046875 286.1875 79.046875 281.339844 C 79.046875 276.492188 82.976562 272.558594 87.824219 272.558594 L 240.636719 272.558594 C 245.476562 272.558594 249.40625 276.492188 249.40625 281.339844 C 249.40625 286.1875 245.476562 290.121094 240.636719 290.121094 Z M 87.824219 240.054688 C 82.976562 240.054688 79.046875 236.121094 79.046875 231.273438 C 79.046875 226.425781 82.976562 222.492188 87.824219 222.492188 L 287.324219 222.492188 C 292.171875 222.492188 296.105469 226.425781 296.105469 231.273438 C 296.105469 236.121094 292.171875 240.054688 287.324219 240.054688 Z M 87.824219 189.988281 C 82.976562 189.988281 79.046875 186.054688 79.046875 181.207031 C 79.046875 176.359375 82.976562 172.425781 87.824219 172.425781 L 151.703125 172.425781 C 156.550781 172.425781 160.484375 176.359375 160.484375 181.207031 C 160.484375 186.054688 156.550781 189.988281 151.703125 189.988281 Z M 270.417969 189.988281 C 265.570312 189.988281 261.648438 186.054688 261.648438 181.207031 C 261.648438 176.359375 265.578125 172.425781 270.417969 172.425781 L 287.324219 172.425781 C 292.171875 172.425781 296.105469 176.359375 296.105469 181.207031 C 296.105469 186.054688 292.171875 189.988281 287.324219 189.988281 Z M 327.085938 297.824219 L 267.710938 357.195312 L 327.085938 357.195312 Z M 327.085938 297.824219 " fill-opacity="1" fill-rule="nonzero"/></g></svg>