<svg xmlns="http://www.w3.org/2000/svg" xmlns:xlink="http://www.w3.org/1999/xlink" width="500" zoomAndPan="magnify" viewBox="0 0 375 374.999991" height="500" preserveAspectRatio="xMidYMid meet" version="1.0"><path fill="#ffffff" d="M 187.5 0 C 83.949219 0 0 83.949219 0 187.5 C 0 291.050781 83.949219 375 187.5 375 C 291.050781 375 375 291.050781 375 187.5 C 375 83.949219 291.050781 0 187.5 0 Z M 219.058594 286.761719 C 219.058594 290.664062 215.347656 292.914062 207.921875 292.914062 L 167.078125 292.914062 C 160.019531 292.914062 155.941406 290.65625 155.941406 286.761719 L 155.941406 155.496094 C 155.941406 151.394531 160.027344 149.347656 167.078125 149.347656 L 207.921875 149.347656 C 215.347656 149.347656 219.058594 151.402344 219.058594 155.496094 Z M 187.5 135.359375 C 169.066406 135.359375 154.109375 120.414062 154.109375 101.976562 C 154.109375 83.542969 169.058594 68.585938 187.5 68.585938 C 205.941406 68.585938 220.890625 83.535156 220.890625 101.976562 C 220.890625 120.421875 205.941406 135.359375 187.5 135.359375 Z M 187.5 135.359375 " fill-opacity="1" fill-rule="nonzero"/><path fill="#666667" d="M 187.5 0 C 185.199219 0.00390625 182.898438 0.0625 180.601562 0.175781 C 178.304688 0.292969 176.011719 0.460938 173.722656 0.691406 C 171.429688 0.917969 169.148438 1.199219 166.875 1.539062 C 164.597656 1.878906 162.332031 2.273438 160.074219 2.726562 C 157.820312 3.175781 155.574219 3.683594 153.34375 4.242188 C 151.113281 4.804688 148.894531 5.417969 146.695312 6.085938 C 144.492188 6.757812 142.308594 7.480469 140.144531 8.253906 C 137.976562 9.03125 135.832031 9.859375 133.707031 10.742188 C 131.582031 11.625 129.480469 12.558594 127.398438 13.542969 C 125.320312 14.527344 123.265625 15.5625 121.238281 16.648438 C 119.210938 17.730469 117.207031 18.867188 115.234375 20.050781 C 113.261719 21.234375 111.320312 22.464844 109.40625 23.742188 C 107.492188 25.023438 105.613281 26.347656 103.765625 27.71875 C 101.917969 29.089844 100.105469 30.503906 98.328125 31.964844 C 96.546875 33.421875 94.808594 34.925781 93.101562 36.472656 C 91.398438 38.015625 89.730469 39.601562 88.105469 41.230469 C 86.476562 42.855469 84.890625 44.523438 83.347656 46.226562 C 81.800781 47.933594 80.296875 49.671875 78.839844 51.453125 C 77.378906 53.230469 75.964844 55.042969 74.59375 56.890625 C 73.222656 58.738281 71.898438 60.617188 70.617188 62.53125 C 69.339844 64.445312 68.109375 66.386719 66.925781 68.359375 C 65.742188 70.332031 64.605469 72.335938 63.523438 74.363281 C 62.4375 76.390625 61.402344 78.445312 60.417969 80.523438 C 59.433594 82.605469 58.5 84.707031 57.617188 86.832031 C 56.734375 88.957031 55.90625 91.101562 55.128906 93.269531 C 54.355469 95.433594 53.632812 97.617188 52.960938 99.820312 C 52.292969 102.019531 51.679688 104.238281 51.117188 106.46875 C 50.558594 108.699219 50.050781 110.945312 49.601562 113.199219 C 49.148438 115.457031 48.753906 117.722656 48.414062 120 C 48.074219 122.273438 47.792969 124.554688 47.566406 126.847656 C 47.335938 129.136719 47.167969 131.429688 47.050781 133.726562 C 46.9375 136.023438 46.878906 138.324219 46.875 140.625 C 46.875 246.449219 172.585938 361.648438 177.984375 366.476562 L 187.359375 375 C 199.289062 363.636719 325.140625 257.101562 328.125 140.625 C 328.121094 138.324219 328.0625 136.023438 327.949219 133.726562 C 327.832031 131.429688 327.664062 129.136719 327.433594 126.847656 C 327.207031 124.554688 326.925781 122.273438 326.585938 119.996094 C 326.246094 117.722656 325.851562 115.457031 325.398438 113.199219 C 324.949219 110.945312 324.441406 108.699219 323.882812 106.46875 C 323.320312 104.238281 322.707031 102.019531 322.039062 99.820312 C 321.367188 97.617188 320.644531 95.433594 319.871094 93.269531 C 319.09375 91.101562 318.265625 88.957031 317.382812 86.832031 C 316.5 84.707031 315.566406 82.605469 314.582031 80.523438 C 313.597656 78.445312 312.5625 76.390625 311.476562 74.363281 C 310.394531 72.335938 309.257812 70.332031 308.074219 68.359375 C 306.890625 66.386719 305.660156 64.445312 304.382812 62.53125 C 303.101562 60.617188 301.777344 58.738281 300.40625 56.890625 C 299.035156 55.042969 297.621094 53.230469 296.160156 51.453125 C 294.703125 49.671875 293.199219 47.933594 291.652344 46.226562 C 290.109375 44.523438 288.523438 42.855469 286.894531 41.230469 C 285.269531 39.601562 283.601562 38.015625 281.898438 36.472656 C 280.191406 34.925781 278.453125 33.421875 276.671875 31.964844 C 274.894531 30.503906 273.082031 29.089844 271.234375 27.71875 C 269.386719 26.347656 267.507812 25.023438 265.59375 23.742188 C 263.679688 22.464844 261.738281 21.234375 259.765625 20.050781 C 257.792969 18.867188 255.789062 17.730469 253.761719 16.648438 C 251.734375 15.5625 249.679688 14.527344 247.601562 13.542969 C 245.519531 12.558594 243.417969 11.625 241.292969 10.742188 C 239.167969 9.859375 237.023438 9.03125 234.855469 8.253906 C 232.691406 7.480469 230.507812 6.757812 228.304688 6.085938 C 226.105469 5.417969 223.886719 4.804688 221.65625 4.242188 C 219.425781 3.683594 217.179688 3.175781 214.925781 2.726562 C 212.667969 2.273438 210.402344 1.878906 208.125 1.539062 C 205.851562 1.199219 203.570312 0.917969 201.277344 0.691406 C 198.988281 0.460938 196.695312 0.292969 194.398438 0.175781 C 192.101562 0.0625 189.800781 0.00390625 187.5 0 Z M 187.5 336.363281 C 159.089844 307.953125 75.285156 218.324219 75.285156 140.625 C 75.285156 138.789062 75.328125 136.953125 75.417969 135.117188 C 75.507812 133.285156 75.644531 131.453125 75.824219 129.625 C 76.003906 127.796875 76.230469 125.976562 76.5 124.160156 C 76.769531 122.34375 77.082031 120.535156 77.441406 118.734375 C 77.796875 116.929688 78.199219 115.140625 78.648438 113.359375 C 79.09375 111.578125 79.582031 109.808594 80.117188 108.050781 C 80.648438 106.292969 81.226562 104.550781 81.84375 102.820312 C 82.460938 101.089844 83.125 99.378906 83.824219 97.683594 C 84.527344 95.984375 85.273438 94.308594 86.058594 92.644531 C 86.84375 90.984375 87.667969 89.347656 88.535156 87.726562 C 89.398438 86.105469 90.304688 84.507812 91.25 82.933594 C 92.195312 81.359375 93.175781 79.808594 94.195312 78.28125 C 95.214844 76.753906 96.273438 75.253906 97.367188 73.777344 C 98.460938 72.304688 99.589844 70.855469 100.757812 69.4375 C 101.921875 68.015625 103.121094 66.625 104.355469 65.265625 C 105.585938 63.90625 106.851562 62.574219 108.152344 61.277344 C 109.449219 59.976562 110.78125 58.710938 112.140625 57.476562 C 113.5 56.246094 114.890625 55.046875 116.3125 53.882812 C 117.730469 52.714844 119.179688 51.585938 120.652344 50.492188 C 122.128906 49.398438 123.628906 48.339844 125.15625 47.320312 C 126.683594 46.300781 128.234375 45.316406 129.808594 44.375 C 131.382812 43.429688 132.980469 42.523438 134.601562 41.660156 C 136.222656 40.792969 137.863281 39.96875 139.523438 39.183594 C 141.183594 38.398438 142.859375 37.652344 144.558594 36.949219 C 146.253906 36.25 147.964844 35.585938 149.695312 34.96875 C 151.425781 34.351562 153.167969 33.773438 154.925781 33.242188 C 156.683594 32.707031 158.453125 32.21875 160.234375 31.773438 C 162.015625 31.324219 163.804688 30.921875 165.609375 30.566406 C 167.410156 30.207031 169.21875 29.894531 171.035156 29.625 C 172.851562 29.355469 174.671875 29.128906 176.5 28.949219 C 178.328125 28.769531 180.160156 28.632812 181.992188 28.542969 C 183.828125 28.453125 185.664062 28.410156 187.5 28.410156 C 189.335938 28.410156 191.171875 28.453125 193.007812 28.542969 C 194.839844 28.632812 196.671875 28.769531 198.5 28.949219 C 200.328125 29.128906 202.148438 29.355469 203.964844 29.625 C 205.78125 29.894531 207.589844 30.207031 209.390625 30.566406 C 211.195312 30.921875 212.984375 31.324219 214.765625 31.773438 C 216.546875 32.21875 218.316406 32.707031 220.074219 33.242188 C 221.832031 33.773438 223.574219 34.351562 225.304688 34.96875 C 227.035156 35.585938 228.746094 36.25 230.441406 36.949219 C 232.140625 37.652344 233.816406 38.398438 235.476562 39.183594 C 237.136719 39.96875 238.777344 40.792969 240.398438 41.660156 C 242.019531 42.523438 243.617188 43.429688 245.191406 44.375 C 246.765625 45.316406 248.316406 46.300781 249.84375 47.320312 C 251.371094 48.339844 252.871094 49.398438 254.347656 50.492188 C 255.820312 51.585938 257.269531 52.714844 258.6875 53.882812 C 260.109375 55.046875 261.5 56.246094 262.859375 57.476562 C 264.21875 58.710938 265.550781 59.976562 266.847656 61.277344 C 268.148438 62.574219 269.414062 63.90625 270.644531 65.265625 C 271.878906 66.625 273.078125 68.015625 274.242188 69.4375 C 275.410156 70.855469 276.539062 72.304688 277.632812 73.777344 C 278.726562 75.253906 279.785156 76.753906 280.804688 78.28125 C 281.824219 79.808594 282.804688 81.359375 283.75 82.933594 C 284.695312 84.507812 285.601562 86.105469 286.464844 87.726562 C 287.332031 89.347656 288.15625 90.988281 288.941406 92.648438 C 289.726562 94.308594 290.472656 95.984375 291.175781 97.683594 C 291.875 99.378906 292.539062 101.089844 293.15625 102.820312 C 293.773438 104.550781 294.351562 106.292969 294.882812 108.050781 C 295.417969 109.808594 295.90625 111.578125 296.351562 113.359375 C 296.800781 115.140625 297.203125 116.929688 297.558594 118.734375 C 297.917969 120.535156 298.230469 122.34375 298.5 124.160156 C 298.769531 125.976562 298.996094 127.796875 299.175781 129.625 C 299.355469 131.453125 299.492188 133.285156 299.582031 135.117188 C 299.671875 136.953125 299.714844 138.789062 299.714844 140.625 C 299.714844 219.746094 215.910156 308.238281 187.5 336.363281 Z M 187.5 76.136719 C 99.714844 78.976562 99.714844 206.25 187.5 209.089844 C 275.285156 206.25 275.285156 78.976562 187.5 76.136719 Z M 187.5 180.683594 C 186.253906 180.683594 185.007812 180.621094 183.769531 180.5 C 182.527344 180.375 181.296875 180.195312 180.074219 179.949219 C 178.851562 179.707031 177.640625 179.40625 176.449219 179.042969 C 175.257812 178.679688 174.082031 178.261719 172.933594 177.785156 C 171.78125 177.308594 170.65625 176.773438 169.554688 176.1875 C 168.457031 175.597656 167.386719 174.957031 166.351562 174.265625 C 165.3125 173.574219 164.3125 172.832031 163.351562 172.039062 C 162.386719 171.25 161.464844 170.414062 160.582031 169.53125 C 159.699219 168.648438 158.863281 167.726562 158.074219 166.765625 C 157.28125 165.800781 156.539062 164.800781 155.847656 163.761719 C 155.15625 162.726562 154.515625 161.660156 153.925781 160.558594 C 153.339844 159.460938 152.808594 158.332031 152.328125 157.183594 C 151.851562 156.03125 151.433594 154.855469 151.070312 153.664062 C 150.710938 152.472656 150.40625 151.261719 150.164062 150.039062 C 149.921875 148.816406 149.738281 147.585938 149.613281 146.34375 C 149.492188 145.105469 149.433594 143.859375 149.433594 142.613281 C 149.433594 141.367188 149.492188 140.125 149.613281 138.882812 C 149.738281 137.640625 149.921875 136.410156 150.164062 135.1875 C 150.40625 133.964844 150.710938 132.757812 151.070312 131.5625 C 151.433594 130.371094 151.851562 129.199219 152.328125 128.046875 C 152.808594 126.894531 153.339844 125.769531 153.925781 124.667969 C 154.515625 123.570312 155.15625 122.5 155.847656 121.464844 C 156.539062 120.425781 157.28125 119.425781 158.074219 118.464844 C 158.863281 117.5 159.699219 116.578125 160.582031 115.695312 C 161.464844 114.8125 162.386719 113.976562 163.351562 113.1875 C 164.3125 112.394531 165.3125 111.652344 166.351562 110.960938 C 167.386719 110.269531 168.457031 109.628906 169.554688 109.039062 C 170.65625 108.453125 171.78125 107.921875 172.933594 107.441406 C 174.082031 106.964844 175.257812 106.546875 176.449219 106.183594 C 177.640625 105.824219 178.851562 105.519531 180.074219 105.277344 C 181.296875 105.035156 182.527344 104.851562 183.769531 104.730469 C 185.007812 104.605469 186.253906 104.546875 187.5 104.546875 C 188.746094 104.546875 189.992188 104.605469 191.230469 104.730469 C 192.472656 104.851562 193.703125 105.035156 194.925781 105.277344 C 196.148438 105.519531 197.359375 105.824219 198.550781 106.183594 C 199.742188 106.546875 200.917969 106.964844 202.066406 107.441406 C 203.21875 107.921875 204.34375 108.453125 205.445312 109.039062 C 206.542969 109.628906 207.613281 110.269531 208.648438 110.960938 C 209.6875 111.652344 210.6875 112.394531 211.648438 113.1875 C 212.613281 113.976562 213.535156 114.8125 214.417969 115.695312 C 215.300781 116.578125 216.136719 117.5 216.925781 118.464844 C 217.71875 119.425781 218.460938 120.425781 219.152344 121.464844 C 219.84375 122.5 220.484375 123.570312 221.074219 124.667969 C 221.660156 125.769531 222.191406 126.894531 222.671875 128.046875 C 223.148438 129.199219 223.566406 130.371094 223.929688 131.5625 C 224.289062 132.757812 224.59375 133.964844 224.835938 135.1875 C 225.078125 136.410156 225.261719 137.640625 225.386719 138.882812 C 225.507812 140.125 225.566406 141.367188 225.566406 142.613281 C 225.566406 143.859375 225.507812 145.105469 225.386719 146.34375 C 225.261719 147.585938 225.078125 148.816406 224.835938 150.039062 C 224.59375 151.261719 224.289062 152.472656 223.929688 153.664062 C 223.566406 154.855469 223.148438 156.03125 222.671875 157.183594 C 222.191406 158.332031 221.660156 159.460938 221.074219 160.558594 C 220.484375 161.660156 219.84375 162.726562 219.152344 163.761719 C 218.460938 164.800781 217.71875 165.800781 216.925781 166.765625 C 216.136719 167.726562 215.300781 168.648438 214.417969 169.53125 C 213.535156 170.414062 212.613281 171.25 211.648438 172.039062 C 210.6875 172.832031 209.6875 173.574219 208.648438 174.265625 C 207.613281 174.957031 206.542969 175.597656 205.445312 176.1875 C 204.34375 176.773438 203.21875 177.308594 202.066406 177.785156 C 200.917969 178.261719 199.742188 178.679688 198.550781 179.042969 C 197.359375 179.40625 196.148438 179.707031 194.925781 179.949219 C 193.703125 180.195312 192.472656 180.375 191.230469 180.5 C 189.992188 180.621094 188.746094 180.683594 187.5 180.683594 Z M 187.5 180.683594 " fill-opacity="1" fill-rule="nonzero"/></svg>