<svg xmlns="http://www.w3.org/2000/svg" xmlns:xlink="http://www.w3.org/1999/xlink" width="500" zoomAndPan="magnify" viewBox="0 0 375 374.999991" height="500" preserveAspectRatio="xMidYMid meet" version="1.0"><path fill="#ffffff" d="M 187.5 0 C 83.949219 0 0 83.949219 0 187.5 C 0 291.050781 83.949219 375 187.5 375 C 291.050781 375 375 291.050781 375 187.5 C 375 83.949219 291.050781 0 187.5 0 Z M 219.058594 286.761719 C 219.058594 290.664062 215.347656 292.914062 207.921875 292.914062 L 167.078125 292.914062 C 160.019531 292.914062 155.941406 290.65625 155.941406 286.761719 L 155.941406 155.496094 C 155.941406 151.394531 160.027344 149.347656 167.078125 149.347656 L 207.921875 149.347656 C 215.347656 149.347656 219.058594 151.402344 219.058594 155.496094 Z M 187.5 135.359375 C 169.066406 135.359375 154.109375 120.414062 154.109375 101.976562 C 154.109375 83.542969 169.058594 68.585938 187.5 68.585938 C 205.941406 68.585938 220.890625 83.535156 220.890625 101.976562 C 220.890625 120.421875 205.941406 135.359375 187.5 135.359375 Z M 187.5 135.359375 " fill-opacity="1" fill-rule="nonzero"/><path fill="#666667" d="M 91.5625 375 L 283.4375 375 C 309.125 375 330.0625 354.0625 330.0625 328.3125 L 330.0625 46.6875 C 330.0625 20.9375 309.125 0 283.4375 0 L 91.5625 0 C 65.875 0 44.9375 20.9375 44.9375 46.6875 L 44.9375 328.3125 C 44.9375 354.0625 65.875 375 91.5625 375 Z M 57.4375 46.6875 C 57.4375 27.8125 72.75 12.5 91.5625 12.5 L 283.4375 12.5 C 302.25 12.5 317.5625 27.8125 317.5625 46.6875 L 317.5625 328.3125 C 317.5625 347.1875 302.25 362.5 283.4375 362.5 L 91.5625 362.5 C 72.75 362.5 57.4375 347.1875 57.4375 328.3125 Z M 57.4375 46.6875 " fill-opacity="1" fill-rule="nonzero"/><path fill="#666667" d="M 133.25 187.6875 C 147.6875 200.5625 166.6875 208.4375 187.5 208.4375 C 208.3125 208.4375 227.3125 200.5625 241.75 187.6875 C 242.3125 187.3125 242.8125 186.875 243.1875 186.3125 C 259.125 171.4375 269.1875 150.25 269.1875 126.8125 C 269.1875 81.75 232.5625 45.125 187.5 45.125 C 142.4375 45.125 105.8125 81.75 105.8125 126.8125 C 105.8125 150.25 115.875 171.4375 131.8125 186.3125 C 132.1875 186.875 132.6875 187.3125 133.25 187.6875 Z M 161.3125 115.25 C 161.3125 100.8125 173.0625 89.0625 187.5 89.0625 C 201.9375 89.0625 213.6875 100.8125 213.6875 115.25 C 213.6875 129.6875 201.9375 141.4375 187.5 141.4375 C 173.0625 141.4375 161.3125 129.6875 161.3125 115.25 Z M 187.5 195.9375 C 171.1875 195.9375 156.25 190.25 144.375 180.75 C 152.4375 164.625 169.1875 153.9375 187.5 153.9375 C 205.8125 153.9375 222.5625 164.625 230.625 180.75 C 218.75 190.25 203.8125 195.9375 187.5 195.9375 Z M 187.5 195.9375 " fill-opacity="1" fill-rule="nonzero"/><path fill="#666667" d="M 262.914062 233.664062 L 112.082031 233.664062 C 108.625 233.664062 105.832031 236.460938 105.832031 239.914062 C 105.832031 243.363281 108.625 246.164062 112.082031 246.164062 L 262.914062 246.164062 C 266.367188 246.164062 269.164062 243.363281 269.164062 239.914062 C 269.164062 236.460938 266.367188 233.664062 262.914062 233.664062 Z M 262.914062 233.664062 " fill-opacity="1" fill-rule="nonzero"/><path fill="#666667" d="M 262.914062 275.519531 L 112.082031 275.519531 C 108.625 275.519531 105.832031 278.320312 105.832031 281.769531 C 105.832031 285.21875 108.625 288.019531 112.082031 288.019531 L 262.914062 288.019531 C 266.367188 288.019531 269.164062 285.21875 269.164062 281.769531 C 269.164062 278.320312 266.367188 275.519531 262.914062 275.519531 Z M 262.914062 275.519531 " fill-opacity="1" fill-rule="nonzero"/><path fill="#666667" d="M 226.90625 317.367188 L 148.101562 317.367188 C 144.644531 317.367188 141.851562 320.167969 141.851562 323.617188 C 141.851562 327.070312 144.644531 329.867188 148.101562 329.867188 L 226.90625 329.867188 C 230.363281 329.867188 233.15625 327.070312 233.15625 323.617188 C 233.15625 320.167969 230.363281 317.367188 226.90625 317.367188 Z M 226.90625 317.367188 " fill-opacity="1" fill-rule="nonzero"/></svg>