<svg xmlns="http://www.w3.org/2000/svg" xmlns:xlink="http://www.w3.org/1999/xlink" width="500" zoomAndPan="magnify" viewBox="0 0 375 374.999991" height="500" preserveAspectRatio="xMidYMid meet" version="1.0"><defs><filter x="0%" y="0%" width="100%" height="100%" id="4dffaeef84"><feColorMatrix values="0 0 0 0 1 0 0 0 0 1 0 0 0 0 1 0 0 0 1 0" color-interpolation-filters="sRGB"/></filter><mask id="d154cc7b33"><g filter="url(#4dffaeef84)"><rect x="-37.5" width="450" fill="#000000" y="-37.499999" height="449.999989" fill-opacity="0.65"/></g></mask><clipPath id="86d5e2a144"><path d="M 226 225 L 370.441406 225 L 370.441406 370 L 226 370 Z M 226 225 " clip-rule="nonzero"/></clipPath><clipPath id="08eb0b9ece"><rect x="0" width="371" y="0" height="370"/></clipPath></defs><g mask="url(#d154cc7b33)"><g transform="matrix(1, 0, 0, 1, 3, 5)"><g clip-path="url(#08eb0b9ece)"><path fill="#888888" d="M 151.875 294.449219 C 148.945312 294.449219 146.019531 294.363281 143.097656 294.183594 C 140.175781 294.007812 137.261719 293.738281 134.355469 293.382812 C 131.445312 293.023438 128.554688 292.578125 125.675781 292.042969 C 122.796875 291.507812 119.9375 290.886719 117.097656 290.175781 C 114.253906 289.464844 111.4375 288.667969 108.648438 287.785156 C 105.855469 286.902344 103.09375 285.933594 100.359375 284.882812 C 97.628906 283.828125 94.929688 282.691406 92.265625 281.472656 C 89.605469 280.253906 86.980469 278.957031 84.398438 277.578125 C 81.816406 276.195312 79.277344 274.738281 76.785156 273.203125 C 74.289062 271.667969 71.847656 270.058594 69.453125 268.375 C 67.058594 266.6875 64.71875 264.929688 62.429688 263.101562 C 60.144531 261.273438 57.914062 259.375 55.746094 257.410156 C 53.574219 255.441406 51.464844 253.410156 49.421875 251.316406 C 47.375 249.222656 45.394531 247.066406 43.484375 244.847656 C 41.570312 242.632812 39.726562 240.359375 37.953125 238.027344 C 36.179688 235.699219 34.480469 233.316406 32.851562 230.878906 C 31.222656 228.445312 29.671875 225.964844 28.199219 223.433594 C 26.722656 220.90625 25.328125 218.332031 24.011719 215.71875 C 22.695312 213.101562 21.457031 210.449219 20.304688 207.757812 C 19.148438 205.066406 18.078125 202.339844 17.09375 199.585938 C 16.105469 196.828125 15.203125 194.042969 14.390625 191.230469 C 13.574219 188.417969 12.84375 185.582031 12.203125 182.726562 C 11.5625 179.867188 11.007812 176.996094 10.542969 174.105469 C 10.078125 171.210938 9.699219 168.308594 9.414062 165.394531 C 9.125 162.480469 8.929688 159.5625 8.820312 156.636719 C 8.714844 153.710938 8.695312 150.78125 8.765625 147.855469 C 8.839844 144.925781 9 142.003906 9.253906 139.085938 C 9.503906 136.171875 9.84375 133.261719 10.273438 130.367188 C 10.703125 127.46875 11.222656 124.589844 11.828125 121.722656 C 12.433594 118.859375 13.128906 116.015625 13.910156 113.195312 C 14.691406 110.371094 15.558594 107.578125 16.511719 104.808594 C 17.464844 102.039062 18.5 99.300781 19.621094 96.597656 C 20.742188 93.890625 21.945312 91.222656 23.230469 88.589844 C 24.515625 85.960938 25.878906 83.371094 27.324219 80.824219 C 28.765625 78.273438 30.289062 75.773438 31.886719 73.320312 C 33.484375 70.867188 35.152344 68.464844 36.898438 66.109375 C 38.644531 63.757812 40.457031 61.464844 42.34375 59.222656 C 44.230469 56.984375 46.183594 54.804688 48.203125 52.683594 C 50.222656 50.5625 52.304688 48.507812 54.453125 46.511719 C 56.597656 44.519531 58.800781 42.597656 61.066406 40.738281 C 63.332031 38.882812 65.648438 37.097656 68.023438 35.382812 C 70.398438 33.667969 72.820312 32.027344 75.296875 30.460938 C 77.769531 28.894531 80.289062 27.40625 82.855469 25.996094 C 85.421875 24.585938 88.027344 23.253906 90.675781 22.003906 C 93.324219 20.75 96.007812 19.582031 98.726562 18.496094 C 101.445312 17.410156 104.195312 16.40625 106.976562 15.492188 C 109.757812 14.574219 112.5625 13.742188 115.394531 12.996094 C 118.226562 12.25 121.078125 11.59375 123.953125 11.023438 C 126.824219 10.453125 129.710938 9.972656 132.613281 9.578125 C 135.515625 9.1875 138.425781 8.882812 141.347656 8.667969 C 144.265625 8.453125 147.191406 8.332031 150.117188 8.296875 C 153.046875 8.261719 155.972656 8.316406 158.898438 8.460938 C 161.824219 8.605469 164.742188 8.84375 167.652344 9.167969 C 170.5625 9.492188 173.457031 9.902344 176.34375 10.40625 C 179.226562 10.90625 182.09375 11.5 184.945312 12.175781 C 187.792969 12.855469 190.617188 13.621094 193.417969 14.472656 C 196.222656 15.324219 198.992188 16.257812 201.738281 17.28125 C 204.480469 18.304688 207.191406 19.410156 209.867188 20.597656 C 212.546875 21.785156 215.183594 23.054688 217.78125 24.40625 C 220.378906 25.753906 222.933594 27.183594 225.445312 28.691406 C 227.957031 30.199219 230.417969 31.78125 232.832031 33.4375 C 235.246094 35.097656 237.605469 36.828125 239.910156 38.628906 C 242.21875 40.433594 244.46875 42.304688 246.660156 44.246094 C 248.855469 46.1875 250.984375 48.195312 253.054688 50.265625 C 255.539062 52.75 257.929688 55.320312 260.226562 57.980469 C 262.523438 60.640625 264.71875 63.378906 266.8125 66.199219 C 268.90625 69.023438 270.894531 71.917969 272.777344 74.882812 C 274.65625 77.851562 276.425781 80.882812 278.085938 83.980469 C 279.742188 87.082031 281.285156 90.234375 282.707031 93.445312 C 284.132812 96.660156 285.4375 99.917969 286.625 103.226562 C 287.808594 106.535156 288.871094 109.878906 289.808594 113.265625 C 290.746094 116.652344 291.558594 120.070312 292.246094 123.515625 C 292.929688 126.960938 293.488281 130.425781 293.921875 133.914062 C 294.351562 137.402344 294.652344 140.898438 294.824219 144.410156 C 295 147.917969 295.042969 151.429688 294.957031 154.941406 C 294.871094 158.453125 294.65625 161.957031 294.3125 165.457031 C 293.96875 168.953125 293.496094 172.429688 292.894531 175.894531 C 292.292969 179.355469 291.566406 182.789062 290.710938 186.199219 C 289.859375 189.605469 288.878906 192.980469 287.777344 196.316406 C 286.675781 199.652344 285.453125 202.941406 284.105469 206.1875 C 282.761719 209.433594 281.300781 212.625 279.71875 215.765625 C 278.136719 218.902344 276.445312 221.976562 274.636719 224.992188 C 272.832031 228.003906 270.914062 230.949219 268.890625 233.820312 C 266.867188 236.691406 264.742188 239.484375 262.511719 242.199219 C 260.28125 244.914062 257.953125 247.546875 255.53125 250.089844 C 253.105469 252.632812 250.59375 255.085938 247.988281 257.441406 C 245.382812 259.800781 242.695312 262.0625 239.925781 264.222656 C 237.15625 266.382812 234.308594 268.4375 231.386719 270.386719 C 228.464844 272.339844 225.472656 274.179688 222.414062 275.910156 C 219.359375 277.640625 216.238281 279.253906 213.0625 280.753906 C 209.886719 282.253906 206.65625 283.636719 203.378906 284.898438 C 200.101562 286.160156 196.777344 287.300781 193.414062 288.320312 C 190.054688 289.335938 186.65625 290.230469 183.226562 290.996094 C 179.800781 291.765625 176.347656 292.40625 172.871094 292.917969 C 169.394531 293.429688 165.90625 293.816406 162.402344 294.070312 C 158.898438 294.328125 155.386719 294.453125 151.875 294.449219 Z M 151.875 39.8125 C 149.742188 39.804688 147.609375 39.863281 145.480469 39.980469 C 143.351562 40.097656 141.226562 40.277344 139.105469 40.515625 C 136.988281 40.753906 134.875 41.054688 132.773438 41.414062 C 130.671875 41.773438 128.582031 42.195312 126.503906 42.675781 C 124.425781 43.152344 122.363281 43.691406 120.316406 44.292969 C 118.269531 44.890625 116.238281 45.546875 114.230469 46.261719 C 112.21875 46.972656 110.234375 47.746094 108.265625 48.574219 C 106.300781 49.402344 104.363281 50.285156 102.445312 51.226562 C 100.53125 52.164062 98.644531 53.160156 96.789062 54.207031 C 94.929688 55.253906 93.105469 56.355469 91.308594 57.507812 C 89.515625 58.660156 87.753906 59.863281 86.027344 61.117188 C 84.300781 62.367188 82.613281 63.671875 80.964844 65.019531 C 79.3125 66.371094 77.699219 67.765625 76.128906 69.207031 C 74.558594 70.652344 73.03125 72.136719 71.542969 73.667969 C 70.058594 75.199219 68.617188 76.769531 67.21875 78.382812 C 65.824219 79.992188 64.476562 81.644531 63.175781 83.335938 C 61.875 85.023438 60.621094 86.75 59.417969 88.511719 C 58.214844 90.273438 57.066406 92.070312 55.964844 93.894531 C 54.867188 95.722656 53.820312 97.582031 52.828125 99.46875 C 51.835938 101.355469 50.894531 103.269531 50.011719 105.210938 C 49.128906 107.152344 48.300781 109.117188 47.53125 111.105469 C 46.761719 113.097656 46.046875 115.105469 45.390625 117.136719 C 44.738281 119.164062 44.140625 121.210938 43.601562 123.273438 C 43.0625 125.339844 42.585938 127.417969 42.164062 129.507812 C 41.746094 131.597656 41.386719 133.699219 41.089844 135.8125 C 40.789062 137.925781 40.550781 140.042969 40.375 142.167969 C 40.199219 144.292969 40.082031 146.421875 40.027344 148.554688 C 39.972656 150.6875 39.976562 152.820312 40.042969 154.949219 C 40.109375 157.082031 40.238281 159.210938 40.425781 161.335938 C 40.617188 163.460938 40.867188 165.578125 41.175781 167.6875 C 41.488281 169.796875 41.855469 171.898438 42.289062 173.984375 C 42.71875 176.074219 43.207031 178.148438 43.757812 180.210938 C 44.308594 182.273438 44.914062 184.316406 45.582031 186.339844 C 46.25 188.367188 46.972656 190.371094 47.753906 192.355469 C 48.535156 194.339844 49.375 196.300781 50.269531 198.238281 C 51.164062 200.175781 52.109375 202.082031 53.113281 203.964844 C 54.117188 205.847656 55.175781 207.699219 56.285156 209.519531 C 57.394531 211.34375 58.554688 213.132812 59.765625 214.886719 C 60.976562 216.640625 62.238281 218.359375 63.550781 220.042969 C 64.859375 221.726562 66.21875 223.371094 67.625 224.972656 C 69.027344 226.578125 70.476562 228.140625 71.972656 229.664062 C 73.464844 231.1875 75.003906 232.664062 76.582031 234.097656 C 78.160156 235.53125 79.78125 236.917969 81.4375 238.257812 C 83.097656 239.601562 84.792969 240.894531 86.527344 242.136719 C 88.257812 243.378906 90.027344 244.574219 91.828125 245.714844 C 93.628906 246.859375 95.460938 247.949219 97.324219 248.984375 C 99.1875 250.023438 101.078125 251.007812 103 251.933594 C 104.917969 252.863281 106.863281 253.738281 108.832031 254.554688 C 110.804688 255.371094 112.796875 256.132812 114.808594 256.835938 C 116.824219 257.539062 118.855469 258.183594 120.90625 258.773438 C 122.957031 259.359375 125.019531 259.886719 127.101562 260.355469 C 129.183594 260.824219 131.273438 261.230469 133.378906 261.582031 C 135.484375 261.929688 137.597656 262.21875 139.714844 262.445312 C 141.835938 262.671875 143.960938 262.839844 146.09375 262.945312 C 148.222656 263.050781 150.355469 263.09375 152.488281 263.078125 C 154.621094 263.0625 156.75 262.984375 158.878906 262.84375 C 161.007812 262.707031 163.128906 262.507812 165.246094 262.246094 C 167.363281 261.988281 169.472656 261.667969 171.570312 261.285156 C 173.667969 260.902344 175.753906 260.464844 177.828125 259.960938 C 179.902344 259.460938 181.957031 258.902344 184 258.285156 C 186.042969 257.664062 188.0625 256.988281 190.066406 256.253906 C 192.066406 255.519531 194.046875 254.726562 196.003906 253.878906 C 197.960938 253.03125 199.894531 252.128906 201.796875 251.171875 C 203.703125 250.210938 205.578125 249.199219 207.425781 248.132812 C 209.273438 247.066406 211.089844 245.949219 212.871094 244.777344 C 214.65625 243.609375 216.402344 242.386719 218.117188 241.117188 C 219.832031 239.847656 221.507812 238.527344 223.144531 237.164062 C 224.78125 235.796875 226.378906 234.382812 227.933594 232.925781 C 229.492188 231.46875 231.003906 229.964844 232.476562 228.421875 C 233.945312 226.878906 235.371094 225.292969 236.753906 223.664062 C 238.132812 222.039062 239.464844 220.375 240.75 218.671875 C 242.03125 216.96875 243.265625 215.230469 244.453125 213.457031 C 245.636719 211.683594 246.769531 209.878906 247.851562 208.039062 C 248.933594 206.199219 249.960938 204.332031 250.933594 202.433594 C 251.910156 200.539062 252.828125 198.613281 253.691406 196.664062 C 254.554688 194.714844 255.363281 192.742188 256.113281 190.742188 C 256.863281 188.746094 257.558594 186.730469 258.191406 184.695312 C 258.828125 182.660156 259.402344 180.605469 259.921875 178.539062 C 260.4375 176.46875 260.898438 174.386719 261.296875 172.289062 C 261.695312 170.195312 262.03125 168.089844 262.308594 165.976562 C 262.585938 163.859375 262.804688 161.738281 262.960938 159.613281 C 263.117188 157.484375 263.210938 155.355469 263.246094 153.222656 C 263.277344 151.089844 263.25 148.957031 263.164062 146.828125 C 263.074219 144.695312 262.925781 142.570312 262.714844 140.449219 C 262.503906 138.324219 262.234375 136.210938 261.902344 134.101562 C 261.570312 131.996094 261.179688 129.902344 260.730469 127.816406 C 260.277344 125.730469 259.765625 123.660156 259.195312 121.605469 C 258.625 119.550781 258 117.515625 257.3125 115.496094 C 256.625 113.476562 255.878906 111.476562 255.078125 109.5 C 254.277344 107.523438 253.421875 105.574219 252.507812 103.644531 C 251.59375 101.71875 250.625 99.816406 249.605469 97.945312 C 248.582031 96.074219 247.507812 94.234375 246.378906 92.421875 C 245.25 90.613281 244.074219 88.835938 242.84375 87.09375 C 241.613281 85.351562 240.335938 83.644531 239.007812 81.972656 C 237.679688 80.304688 236.308594 78.675781 234.886719 77.082031 C 233.464844 75.492188 232 73.945312 230.492188 72.4375 C 227.914062 69.859375 225.222656 67.417969 222.40625 65.105469 C 219.59375 62.792969 216.671875 60.625 213.644531 58.601562 C 210.617188 56.578125 207.496094 54.703125 204.285156 52.984375 C 201.074219 51.265625 197.789062 49.710938 194.421875 48.3125 C 191.058594 46.917969 187.636719 45.691406 184.152344 44.628906 C 180.667969 43.570312 177.140625 42.683594 173.566406 41.96875 C 169.996094 41.253906 166.398438 40.71875 162.773438 40.359375 C 159.148438 39.996094 155.515625 39.816406 151.875 39.8125 Z M 151.875 39.8125 " fill-opacity="1" fill-rule="nonzero"/><g clip-path="url(#86d5e2a144)"><path fill="#888888" d="M 354.703125 370 C 352.621094 369.992188 350.621094 369.585938 348.703125 368.78125 C 346.78125 367.976562 345.085938 366.839844 343.621094 365.363281 L 230.804688 252.625 C 230.074219 251.894531 229.421875 251.101562 228.847656 250.242188 C 228.273438 249.382812 227.789062 248.476562 227.394531 247.523438 C 227 246.566406 226.699219 245.582031 226.5 244.570312 C 226.296875 243.558594 226.195312 242.535156 226.195312 241.5 C 226.195312 240.46875 226.296875 239.445312 226.5 238.433594 C 226.699219 237.417969 227 236.433594 227.394531 235.480469 C 227.789062 234.527344 228.273438 233.621094 228.847656 232.761719 C 229.421875 231.902344 230.074219 231.109375 230.804688 230.378906 C 231.535156 229.648438 232.332031 228.996094 233.1875 228.421875 C 234.046875 227.847656 234.953125 227.363281 235.910156 226.96875 C 236.863281 226.570312 237.847656 226.273438 238.859375 226.070312 C 239.875 225.871094 240.894531 225.769531 241.929688 225.769531 C 242.960938 225.769531 243.984375 225.871094 245 226.070312 C 246.011719 226.273438 246.996094 226.570312 247.949219 226.96875 C 248.902344 227.363281 249.8125 227.847656 250.667969 228.421875 C 251.527344 228.996094 252.324219 229.648438 253.054688 230.378906 L 365.789062 343.191406 C 366.332031 343.738281 366.832031 344.320312 367.289062 344.941406 C 367.75 345.5625 368.160156 346.214844 368.519531 346.894531 C 368.882812 347.574219 369.191406 348.277344 369.449219 349.003906 C 369.710938 349.730469 369.914062 350.472656 370.0625 351.226562 C 370.210938 351.984375 370.304688 352.746094 370.34375 353.515625 C 370.378906 354.285156 370.359375 355.054688 370.285156 355.824219 C 370.210938 356.589844 370.078125 357.347656 369.890625 358.09375 C 369.703125 358.84375 369.464844 359.574219 369.167969 360.285156 C 368.875 360.996094 368.527344 361.683594 368.132812 362.347656 C 367.738281 363.007812 367.296875 363.636719 366.808594 364.234375 C 366.320312 364.828125 365.789062 365.386719 365.21875 365.90625 C 364.648438 366.425781 364.046875 366.898438 363.40625 367.328125 C 362.765625 367.757812 362.097656 368.140625 361.402344 368.472656 C 360.707031 368.804688 359.988281 369.082031 359.253906 369.308594 C 358.515625 369.535156 357.765625 369.707031 357.003906 369.820312 C 356.242188 369.9375 355.476562 369.996094 354.703125 370 Z M 354.703125 370 " fill-opacity="1" fill-rule="nonzero"/></g></g></g></g></svg>