<svg xmlns="http://www.w3.org/2000/svg" xmlns:xlink="http://www.w3.org/1999/xlink" width="500" zoomAndPan="magnify" viewBox="0 0 375 374.999991" height="500" preserveAspectRatio="xMidYMid meet" version="1.0"><path fill="#000000" d="M 353.664062 307.132812 C 353.664062 308.246094 353.636719 309.359375 353.578125 310.46875 C 353.519531 311.582031 353.433594 312.691406 353.320312 313.796875 C 353.203125 314.90625 353.058594 316.007812 352.882812 317.105469 C 352.710938 318.207031 352.507812 319.300781 352.277344 320.390625 C 352.046875 321.476562 351.785156 322.558594 351.496094 323.632812 C 351.210938 324.710938 350.894531 325.777344 350.546875 326.835938 C 350.203125 327.894531 349.832031 328.941406 349.433594 329.980469 C 349.035156 331.019531 348.605469 332.046875 348.152344 333.0625 C 347.699219 334.082031 347.21875 335.085938 346.714844 336.074219 C 346.207031 337.066406 345.675781 338.042969 345.117188 339.007812 C 344.558594 339.96875 343.976562 340.917969 343.371094 341.851562 C 342.761719 342.785156 342.128906 343.699219 341.472656 344.597656 C 340.820312 345.5 340.140625 346.378906 339.4375 347.242188 C 338.734375 348.105469 338.011719 348.953125 337.265625 349.777344 C 336.519531 350.601562 335.75 351.410156 334.960938 352.195312 C 334.171875 352.980469 333.363281 353.742188 332.535156 354.484375 C 331.703125 355.230469 330.855469 355.949219 329.988281 356.648438 C 329.121094 357.34375 328.238281 358.019531 327.335938 358.671875 C 326.433594 359.324219 325.515625 359.949219 324.578125 360.554688 C 323.644531 361.15625 322.691406 361.734375 321.726562 362.289062 C 320.761719 362.84375 319.78125 363.371094 318.785156 363.871094 C 317.792969 364.375 316.785156 364.847656 315.769531 365.296875 C 314.75 365.746094 313.71875 366.167969 312.679688 366.5625 C 311.636719 366.957031 310.585938 367.328125 309.527344 367.664062 C 308.46875 368.003906 307.398438 368.316406 306.320312 368.601562 C 305.246094 368.882812 304.160156 369.140625 303.070312 369.367188 C 301.980469 369.589844 300.886719 369.789062 299.785156 369.957031 C 298.6875 370.128906 297.582031 370.265625 296.472656 370.378906 C 295.367188 370.488281 294.257812 370.570312 293.144531 370.625 C 292.03125 370.675781 290.917969 370.699219 289.804688 370.691406 C 288.691406 370.6875 287.582031 370.652344 286.46875 370.585938 C 285.359375 370.523438 284.25 370.429688 283.144531 370.308594 C 282.035156 370.183594 280.933594 370.03125 279.835938 369.851562 C 278.738281 369.671875 277.644531 369.460938 276.554688 369.222656 C 275.46875 368.984375 274.386719 368.71875 273.316406 368.421875 C 272.242188 368.128906 271.175781 367.804688 270.121094 367.453125 C 269.0625 367.105469 268.015625 366.726562 266.980469 366.320312 C 265.941406 365.914062 264.917969 365.480469 263.902344 365.019531 C 262.890625 364.5625 261.890625 364.074219 260.902344 363.5625 C 259.914062 363.050781 258.9375 362.511719 257.980469 361.949219 C 257.019531 361.382812 256.074219 360.796875 255.144531 360.183594 C 254.214844 359.570312 253.304688 358.933594 252.410156 358.269531 C 251.511719 357.609375 250.636719 356.925781 249.777344 356.21875 C 248.917969 355.511719 248.078125 354.78125 247.253906 354.03125 C 246.433594 353.277344 245.632812 352.503906 244.851562 351.710938 C 244.074219 350.917969 243.3125 350.105469 242.574219 349.269531 C 241.835938 348.4375 241.121094 347.585938 240.429688 346.714844 C 239.738281 345.84375 239.066406 344.953125 238.421875 344.046875 C 237.773438 343.140625 237.152344 342.21875 236.554688 341.277344 C 235.957031 340.339844 235.386719 339.386719 234.839844 338.417969 C 234.289062 337.449219 233.769531 336.464844 233.273438 335.46875 C 232.777344 334.472656 232.308594 333.460938 231.867188 332.441406 C 231.421875 331.421875 231.007812 330.386719 230.621094 329.34375 C 230.230469 328.300781 229.871094 327.25 229.539062 326.1875 C 229.203125 325.125 228.898438 324.054688 228.621094 322.976562 C 228.347656 321.898438 228.097656 320.816406 227.878906 319.722656 C 227.660156 318.632812 227.46875 317.535156 227.304688 316.433594 C 227.144531 315.335938 227.011719 314.230469 226.90625 313.121094 C 226.804688 312.011719 226.726562 310.902344 226.683594 309.792969 C 226.636719 308.679688 226.621094 307.566406 226.632812 306.453125 C 226.648438 305.339844 226.6875 304.230469 226.761719 303.117188 C 226.832031 302.007812 226.933594 300.898438 227.0625 299.792969 C 227.191406 298.6875 227.351562 297.585938 227.539062 296.492188 C 227.726562 295.394531 227.941406 294.300781 228.1875 293.214844 L 128.027344 235.109375 C 126.523438 236.535156 124.953125 237.882812 123.316406 239.152344 C 121.679688 240.425781 119.984375 241.613281 118.234375 242.71875 C 116.480469 243.824219 114.679688 244.839844 112.828125 245.769531 C 110.972656 246.699219 109.082031 247.535156 107.148438 248.277344 C 105.214844 249.023438 103.246094 249.667969 101.25 250.21875 C 99.253906 250.773438 97.234375 251.222656 95.191406 251.578125 C 93.148438 251.929688 91.09375 252.183594 89.027344 252.335938 C 86.960938 252.488281 84.894531 252.542969 82.820312 252.492188 C 80.75 252.441406 78.6875 252.289062 76.628906 252.039062 C 74.574219 251.789062 72.535156 251.4375 70.511719 250.984375 C 68.488281 250.53125 66.492188 249.984375 64.523438 249.335938 C 62.554688 248.691406 60.625 247.949219 58.726562 247.113281 C 56.832031 246.277344 54.980469 245.351562 53.175781 244.335938 C 51.371094 243.320312 49.621094 242.214844 47.921875 241.027344 C 46.226562 239.839844 44.589844 238.570312 43.015625 237.222656 C 41.441406 235.875 39.9375 234.453125 38.503906 232.957031 C 37.070312 231.460938 35.714844 229.902344 34.433594 228.273438 C 33.152344 226.644531 31.953125 224.957031 30.835938 223.210938 C 29.722656 221.46875 28.691406 219.671875 27.753906 217.824219 C 26.8125 215.980469 25.964844 214.089844 25.210938 212.164062 C 24.453125 210.234375 23.792969 208.273438 23.230469 206.277344 C 22.667969 204.285156 22.203125 202.269531 21.835938 200.230469 C 21.472656 198.191406 21.207031 196.140625 21.042969 194.074219 C 20.875 192.007812 20.8125 189.941406 20.851562 187.871094 C 20.886719 185.796875 21.027344 183.734375 21.265625 181.675781 C 21.503906 179.617188 21.84375 177.578125 22.285156 175.554688 C 22.722656 173.527344 23.261719 171.53125 23.894531 169.558594 C 24.53125 167.585938 25.261719 165.652344 26.085938 163.75 C 26.910156 161.851562 27.824219 159.996094 28.832031 158.183594 C 29.835938 156.371094 30.929688 154.613281 32.109375 152.910156 C 33.285156 151.207031 34.546875 149.566406 35.882812 147.984375 C 37.222656 146.402344 38.636719 144.890625 40.125 143.449219 C 41.609375 142.007812 43.164062 140.640625 44.785156 139.347656 C 46.40625 138.058594 48.085938 136.851562 49.828125 135.726562 C 51.566406 134.597656 53.355469 133.558594 55.195312 132.609375 C 57.039062 131.660156 58.921875 130.800781 60.84375 130.03125 C 62.769531 129.265625 64.726562 128.59375 66.71875 128.019531 C 68.710938 127.445312 70.722656 126.96875 72.761719 126.589844 C 74.796875 126.214844 76.847656 125.933594 78.914062 125.757812 C 80.976562 125.582031 83.046875 125.503906 85.117188 125.53125 C 87.191406 125.554688 89.257812 125.679688 91.316406 125.910156 C 93.375 126.136719 95.417969 126.460938 97.445312 126.890625 C 99.472656 127.316406 101.476562 127.84375 103.453125 128.464844 C 105.429688 129.089844 107.371094 129.808594 109.273438 130.621094 C 111.179688 131.433594 113.042969 132.335938 114.859375 133.332031 C 116.675781 134.328125 118.441406 135.410156 120.152344 136.578125 C 121.863281 137.746094 123.515625 138.992188 125.105469 140.324219 C 126.691406 141.652344 128.214844 143.054688 129.664062 144.535156 L 228.683594 87.074219 C 228.363281 85.863281 228.078125 84.644531 227.832031 83.414062 C 227.582031 82.1875 227.371094 80.953125 227.195312 79.710938 C 227.019531 78.46875 226.882812 77.226562 226.78125 75.976562 C 226.679688 74.726562 226.617188 73.476562 226.589844 72.222656 C 226.5625 70.96875 226.570312 69.71875 226.617188 68.464844 C 226.664062 67.214844 226.75 65.964844 226.867188 64.714844 C 226.988281 63.46875 227.148438 62.226562 227.339844 60.988281 C 227.535156 59.75 227.765625 58.519531 228.03125 57.292969 C 228.300781 56.070312 228.601562 54.855469 228.941406 53.648438 C 229.28125 52.441406 229.65625 51.246094 230.0625 50.0625 C 230.472656 48.878906 230.917969 47.707031 231.398438 46.546875 C 231.875 45.390625 232.386719 44.246094 232.933594 43.117188 C 233.480469 41.992188 234.058594 40.878906 234.671875 39.785156 C 235.285156 38.691406 235.929688 37.617188 236.605469 36.5625 C 237.28125 35.507812 237.984375 34.472656 238.722656 33.457031 C 239.460938 32.445312 240.226562 31.453125 241.019531 30.484375 C 241.816406 29.515625 242.640625 28.574219 243.492188 27.652344 C 244.34375 26.734375 245.21875 25.839844 246.125 24.972656 C 247.027344 24.101562 247.957031 23.261719 248.910156 22.449219 C 249.867188 21.636719 250.84375 20.851562 251.84375 20.097656 C 252.84375 19.339844 253.863281 18.617188 254.90625 17.921875 C 255.953125 17.226562 257.015625 16.5625 258.097656 15.929688 C 259.179688 15.296875 260.277344 14.699219 261.398438 14.132812 C 262.515625 13.566406 263.648438 13.03125 264.796875 12.53125 C 265.945312 12.03125 267.109375 11.566406 268.285156 11.132812 C 269.464844 10.703125 270.652344 10.308594 271.851562 9.945312 C 273.054688 9.585938 274.261719 9.257812 275.484375 8.96875 C 276.703125 8.679688 277.929688 8.425781 279.164062 8.210938 C 280.398438 7.992188 281.640625 7.8125 282.882812 7.667969 C 284.128906 7.523438 285.378906 7.417969 286.628906 7.347656 C 287.882812 7.277344 289.132812 7.246094 290.386719 7.25 C 291.640625 7.253906 292.894531 7.296875 294.144531 7.375 C 295.394531 7.453125 296.640625 7.566406 297.886719 7.71875 C 299.132812 7.871094 300.371094 8.058594 301.601562 8.285156 C 302.835938 8.507812 304.0625 8.769531 305.277344 9.066406 C 306.496094 9.367188 307.703125 9.699219 308.902344 10.066406 C 310.101562 10.4375 311.285156 10.839844 312.460938 11.28125 C 313.632812 11.71875 314.792969 12.191406 315.941406 12.699219 C 317.085938 13.207031 318.21875 13.746094 319.332031 14.324219 C 320.445312 14.898438 321.542969 15.503906 322.621094 16.144531 C 323.699219 16.78125 324.757812 17.453125 325.792969 18.152344 C 326.832031 18.855469 327.851562 19.585938 328.84375 20.351562 C 329.839844 21.113281 330.8125 21.902344 331.761719 22.722656 C 332.710938 23.539062 333.632812 24.386719 334.53125 25.261719 C 335.429688 26.136719 336.300781 27.035156 337.148438 27.960938 C 337.992188 28.886719 338.808594 29.835938 339.597656 30.808594 C 340.386719 31.78125 341.148438 32.777344 341.878906 33.796875 C 342.609375 34.816406 343.308594 35.855469 343.976562 36.914062 C 344.644531 37.976562 345.28125 39.054688 345.886719 40.152344 C 346.492188 41.25 347.0625 42.363281 347.601562 43.496094 C 348.140625 44.625 348.644531 45.773438 349.117188 46.933594 C 349.589844 48.09375 350.023438 49.269531 350.425781 50.457031 C 350.828125 51.644531 351.195312 52.839844 351.527344 54.050781 C 351.855469 55.257812 352.152344 56.476562 352.410156 57.703125 C 352.667969 58.929688 352.890625 60.160156 353.078125 61.402344 C 353.265625 62.640625 353.414062 63.882812 353.527344 65.132812 C 353.636719 66.378906 353.714844 67.628906 353.753906 68.882812 C 353.789062 70.136719 353.792969 71.386719 353.757812 72.640625 C 353.722656 73.894531 353.648438 75.144531 353.539062 76.394531 C 353.429688 77.640625 353.28125 78.886719 353.101562 80.125 C 352.917969 81.363281 352.695312 82.597656 352.441406 83.824219 C 352.183594 85.050781 351.894531 86.269531 351.566406 87.480469 C 351.238281 88.6875 350.875 89.886719 350.472656 91.074219 C 350.074219 92.261719 349.640625 93.4375 349.171875 94.601562 C 348.703125 95.761719 348.203125 96.910156 347.664062 98.042969 C 347.128906 99.175781 346.558594 100.292969 345.957031 101.390625 C 345.355469 102.488281 344.722656 103.570312 344.054688 104.632812 C 343.390625 105.695312 342.691406 106.734375 341.964844 107.753906 C 341.234375 108.773438 340.480469 109.773438 339.691406 110.75 C 338.90625 111.722656 338.089844 112.675781 337.246094 113.601562 C 336.402344 114.53125 335.535156 115.433594 334.636719 116.308594 C 333.742188 117.183594 332.820312 118.03125 331.875 118.855469 C 330.925781 119.675781 329.957031 120.46875 328.964844 121.234375 C 327.96875 121.996094 326.953125 122.730469 325.917969 123.433594 C 324.882812 124.140625 323.824219 124.8125 322.746094 125.453125 C 321.671875 126.097656 320.574219 126.707031 319.464844 127.28125 C 318.351562 127.859375 317.222656 128.402344 316.078125 128.914062 C 314.933594 129.421875 313.773438 129.898438 312.601562 130.339844 C 311.425781 130.78125 310.242188 131.191406 309.042969 131.5625 C 307.847656 131.933594 306.640625 132.269531 305.421875 132.570312 C 304.207031 132.871094 302.980469 133.132812 301.75 133.363281 C 300.515625 133.589844 299.277344 133.78125 298.035156 133.9375 C 296.789062 134.089844 295.542969 134.210938 294.292969 134.289062 C 293.042969 134.371094 291.789062 134.414062 290.535156 134.421875 C 289.28125 134.429688 288.03125 134.398438 286.777344 134.332031 C 285.527344 134.265625 284.277344 134.160156 283.03125 134.019531 C 281.785156 133.878906 280.546875 133.703125 279.3125 133.488281 C 278.074219 133.273438 276.847656 133.023438 275.628906 132.738281 C 274.40625 132.449219 273.195312 132.128906 271.996094 131.769531 C 270.792969 131.410156 269.605469 131.019531 268.425781 130.589844 C 267.25 130.160156 266.085938 129.699219 264.933594 129.199219 C 263.785156 128.703125 262.648438 128.171875 261.53125 127.609375 C 260.410156 127.042969 259.308594 126.445312 258.226562 125.816406 C 257.140625 125.1875 256.078125 124.527344 255.03125 123.835938 C 253.988281 123.140625 252.964844 122.417969 251.960938 121.664062 C 250.960938 120.914062 249.980469 120.132812 249.023438 119.320312 L 146.992188 178.523438 C 147.578125 182 147.875 185.503906 147.875 189.027344 C 147.875 193.339844 147.445312 197.609375 146.585938 201.832031 L 247.308594 260.257812 C 248.4375 259.226562 249.601562 258.238281 250.800781 257.289062 C 252.003906 256.339844 253.234375 255.4375 254.5 254.578125 C 255.769531 253.722656 257.0625 252.910156 258.386719 252.144531 C 259.710938 251.378906 261.0625 250.664062 262.441406 249.996094 C 263.816406 249.328125 265.214844 248.710938 266.636719 248.144531 C 268.058594 247.578125 269.496094 247.066406 270.953125 246.601562 C 272.414062 246.140625 273.886719 245.730469 275.375 245.375 C 276.863281 245.019531 278.359375 244.71875 279.871094 244.46875 C 281.378906 244.222656 282.894531 244.027344 284.421875 243.890625 C 285.945312 243.753906 287.46875 243.671875 289 243.640625 C 290.527344 243.613281 292.058594 243.640625 293.585938 243.722656 C 295.113281 243.808594 296.636719 243.945312 298.152344 244.136719 C 299.671875 244.328125 301.179688 244.578125 302.679688 244.878906 C 304.179688 245.179688 305.664062 245.535156 307.140625 245.945312 C 308.613281 246.355469 310.070312 246.816406 311.511719 247.328125 C 312.953125 247.84375 314.375 248.410156 315.773438 249.027344 C 317.171875 249.644531 318.546875 250.308594 319.898438 251.027344 C 321.25 251.742188 322.574219 252.507812 323.871094 253.320312 C 325.167969 254.132812 326.433594 254.988281 327.667969 255.890625 C 328.902344 256.796875 330.101562 257.742188 331.269531 258.734375 C 332.433594 259.722656 333.5625 260.753906 334.65625 261.824219 C 335.746094 262.898438 336.796875 264.007812 337.808594 265.152344 C 338.820312 266.300781 339.789062 267.484375 340.714844 268.703125 C 341.640625 269.917969 342.519531 271.167969 343.355469 272.449219 C 344.191406 273.730469 344.980469 275.039062 345.722656 276.378906 C 346.460938 277.71875 347.152344 279.082031 347.796875 280.46875 C 348.4375 281.855469 349.027344 283.265625 349.570312 284.695312 C 350.109375 286.128906 350.597656 287.574219 351.035156 289.042969 C 351.46875 290.507812 351.851562 291.988281 352.179688 293.480469 C 352.507812 294.976562 352.78125 296.480469 353.003906 297.992188 C 353.222656 299.507812 353.386719 301.027344 353.5 302.550781 C 353.609375 304.078125 353.664062 305.605469 353.664062 307.132812 Z M 353.664062 307.132812 " fill-opacity="1" fill-rule="nonzero"/></svg>