<svg xmlns="http://www.w3.org/2000/svg" xmlns:xlink="http://www.w3.org/1999/xlink" width="500" zoomAndPan="magnify" viewBox="0 0 375 374.999991" height="500" preserveAspectRatio="xMidYMid meet" version="1.0"><defs><clipPath id="f0c61e4e04"><path d="M 0 166 L 121 166 L 121 298.40625 L 0 298.40625 Z M 0 166 " clip-rule="nonzero"/></clipPath><clipPath id="a86b1757fd"><path d="M 30 76.40625 L 110 76.40625 L 110 156 L 30 156 Z M 30 76.40625 " clip-rule="nonzero"/></clipPath><clipPath id="d8e093a3a8"><path d="M 118 166 L 259 166 L 259 298.40625 L 118 298.40625 Z M 118 166 " clip-rule="nonzero"/></clipPath><clipPath id="4d072d9461"><path d="M 254 166 L 375 166 L 375 298.40625 L 254 298.40625 Z M 254 166 " clip-rule="nonzero"/></clipPath><clipPath id="cb3dba6745"><path d="M 265 76.40625 L 345 76.40625 L 345 156 L 265 156 Z M 265 76.40625 " clip-rule="nonzero"/></clipPath><clipPath id="87b80d0a73"><path d="M 148 76.40625 L 228 76.40625 L 228 156 L 148 156 Z M 148 76.40625 " clip-rule="nonzero"/></clipPath></defs><g clip-path="url(#f0c61e4e04)"><path fill="#666667" d="M 120.96875 188.613281 C 111.261719 202.144531 105.550781 218.714844 105.550781 236.589844 L 105.550781 298.597656 L 0.046875 298.597656 L 0.046875 236.589844 C 0.046875 197.941406 31.378906 166.617188 70.019531 166.617188 C 90.109375 166.617188 108.199219 175.066406 120.96875 188.613281 Z M 120.96875 188.613281 " fill-opacity="1" fill-rule="nonzero"/></g><g clip-path="url(#a86b1757fd)"><path fill="#666667" d="M 109.347656 115.71875 C 109.347656 117.007812 109.285156 118.292969 109.160156 119.574219 C 109.03125 120.855469 108.84375 122.125 108.59375 123.390625 C 108.339844 124.652344 108.027344 125.898438 107.65625 127.132812 C 107.28125 128.363281 106.847656 129.574219 106.355469 130.765625 C 105.863281 131.953125 105.3125 133.117188 104.707031 134.253906 C 104.097656 135.390625 103.4375 136.492188 102.722656 137.5625 C 102.007812 138.632812 101.242188 139.667969 100.421875 140.660156 C 99.605469 141.65625 98.742188 142.609375 97.832031 143.519531 C 96.921875 144.429688 95.96875 145.296875 94.972656 146.113281 C 93.976562 146.929688 92.945312 147.695312 91.875 148.410156 C 90.804688 149.125 89.699219 149.789062 88.566406 150.394531 C 87.429688 151 86.265625 151.550781 85.078125 152.042969 C 83.886719 152.535156 82.675781 152.96875 81.445312 153.34375 C 80.210938 153.71875 78.964844 154.03125 77.703125 154.28125 C 76.4375 154.53125 75.167969 154.722656 73.882812 154.847656 C 72.601562 154.972656 71.320312 155.035156 70.03125 155.035156 C 68.742188 155.035156 67.457031 154.972656 66.175781 154.847656 C 64.894531 154.722656 63.625 154.53125 62.359375 154.28125 C 61.097656 154.03125 59.851562 153.71875 58.617188 153.34375 C 57.386719 152.96875 56.175781 152.535156 54.984375 152.042969 C 53.796875 151.550781 52.632812 151 51.496094 150.394531 C 50.359375 149.789062 49.257812 149.125 48.1875 148.410156 C 47.117188 147.695312 46.082031 146.929688 45.089844 146.113281 C 44.09375 145.296875 43.140625 144.429688 42.230469 143.519531 C 41.320312 142.609375 40.453125 141.65625 39.636719 140.660156 C 38.820312 139.667969 38.054688 138.632812 37.339844 137.5625 C 36.625 136.492188 35.964844 135.390625 35.355469 134.253906 C 34.75 133.117188 34.199219 131.953125 33.707031 130.765625 C 33.214844 129.574219 32.78125 128.363281 32.40625 127.132812 C 32.03125 125.898438 31.71875 124.652344 31.46875 123.390625 C 31.21875 122.125 31.027344 120.855469 30.902344 119.574219 C 30.777344 118.292969 30.714844 117.007812 30.714844 115.71875 C 30.714844 114.429688 30.777344 113.148438 30.902344 111.867188 C 31.027344 110.582031 31.21875 109.3125 31.46875 108.046875 C 31.71875 106.785156 32.03125 105.539062 32.40625 104.304688 C 32.78125 103.074219 33.214844 101.863281 33.707031 100.671875 C 34.199219 99.484375 34.75 98.320312 35.355469 97.183594 C 35.964844 96.050781 36.625 94.945312 37.339844 93.875 C 38.054688 92.804688 38.820312 91.773438 39.636719 90.777344 C 40.453125 89.78125 41.320312 88.828125 42.230469 87.917969 C 43.140625 87.007812 44.09375 86.144531 45.089844 85.328125 C 46.082031 84.507812 47.117188 83.742188 48.1875 83.027344 C 49.257812 82.3125 50.359375 81.652344 51.496094 81.042969 C 52.632812 80.4375 53.796875 79.886719 54.984375 79.394531 C 56.175781 78.902344 57.386719 78.46875 58.617188 78.09375 C 59.851562 77.722656 61.097656 77.410156 62.359375 77.15625 C 63.625 76.90625 64.894531 76.71875 66.175781 76.589844 C 67.457031 76.464844 68.742188 76.402344 70.03125 76.402344 C 71.320312 76.402344 72.601562 76.464844 73.882812 76.589844 C 75.167969 76.71875 76.4375 76.90625 77.703125 77.15625 C 78.964844 77.410156 80.210938 77.722656 81.445312 78.09375 C 82.675781 78.46875 83.886719 78.902344 85.078125 79.394531 C 86.265625 79.886719 87.429688 80.4375 88.566406 81.042969 C 89.699219 81.652344 90.804688 82.3125 91.875 83.027344 C 92.945312 83.742188 93.976562 84.507812 94.972656 85.328125 C 95.96875 86.144531 96.921875 87.007812 97.832031 87.917969 C 98.742188 88.828125 99.605469 89.78125 100.421875 90.777344 C 101.242188 91.773438 102.007812 92.804688 102.722656 93.875 C 103.4375 94.945312 104.097656 96.050781 104.707031 97.183594 C 105.3125 98.320312 105.863281 99.484375 106.355469 100.671875 C 106.847656 101.863281 107.28125 103.074219 107.65625 104.304688 C 108.027344 105.539062 108.339844 106.785156 108.59375 108.046875 C 108.84375 109.3125 109.03125 110.582031 109.160156 111.867188 C 109.285156 113.148438 109.347656 114.429688 109.347656 115.71875 Z M 109.347656 115.71875 " fill-opacity="1" fill-rule="nonzero"/></g><g clip-path="url(#d8e093a3a8)"><path fill="#666667" d="M 188.089844 166.609375 C 149.4375 166.609375 118.117188 197.941406 118.117188 236.582031 L 118.117188 298.589844 L 258.074219 298.589844 L 258.074219 236.582031 C 258.074219 197.941406 226.738281 166.609375 188.089844 166.609375 Z M 188.089844 166.609375 " fill-opacity="1" fill-rule="nonzero"/></g><g clip-path="url(#4d072d9461)"><path fill="#666667" d="M 375.046875 236.589844 L 375.046875 298.597656 L 270.640625 298.597656 L 270.640625 236.589844 C 270.640625 218.425781 264.742188 201.613281 254.757812 187.964844 C 267.480469 174.796875 285.316406 166.617188 305.066406 166.617188 C 343.707031 166.617188 375.046875 197.941406 375.046875 236.589844 Z M 375.046875 236.589844 " fill-opacity="1" fill-rule="nonzero"/></g><g clip-path="url(#cb3dba6745)"><path fill="#666667" d="M 344.382812 115.71875 C 344.382812 117.007812 344.320312 118.292969 344.195312 119.574219 C 344.066406 120.855469 343.878906 122.125 343.628906 123.390625 C 343.375 124.652344 343.0625 125.898438 342.691406 127.132812 C 342.316406 128.363281 341.882812 129.574219 341.390625 130.765625 C 340.898438 131.953125 340.347656 133.117188 339.742188 134.253906 C 339.132812 135.390625 338.472656 136.492188 337.757812 137.5625 C 337.042969 138.632812 336.277344 139.667969 335.457031 140.660156 C 334.640625 141.65625 333.777344 142.609375 332.867188 143.519531 C 331.957031 144.429688 331.003906 145.296875 330.007812 146.113281 C 329.011719 146.929688 327.980469 147.695312 326.910156 148.410156 C 325.839844 149.125 324.734375 149.789062 323.601562 150.394531 C 322.464844 151 321.300781 151.550781 320.113281 152.042969 C 318.921875 152.535156 317.710938 152.96875 316.480469 153.34375 C 315.246094 153.71875 314 154.03125 312.734375 154.28125 C 311.472656 154.53125 310.199219 154.722656 308.917969 154.847656 C 307.636719 154.972656 306.351562 155.035156 305.066406 155.035156 C 303.777344 155.035156 302.492188 154.972656 301.210938 154.847656 C 299.929688 154.722656 298.660156 154.53125 297.394531 154.28125 C 296.132812 154.03125 294.882812 153.71875 293.652344 153.34375 C 292.421875 152.96875 291.210938 152.535156 290.019531 152.042969 C 288.828125 151.550781 287.667969 151 286.53125 150.394531 C 285.394531 149.789062 284.292969 149.125 283.222656 148.410156 C 282.152344 147.695312 281.117188 146.929688 280.121094 146.113281 C 279.128906 145.296875 278.175781 144.429688 277.265625 143.519531 C 276.355469 142.609375 275.488281 141.65625 274.671875 140.660156 C 273.855469 139.667969 273.089844 138.632812 272.375 137.5625 C 271.660156 136.492188 270.996094 135.390625 270.390625 134.253906 C 269.785156 133.117188 269.234375 131.953125 268.742188 130.765625 C 268.25 129.574219 267.816406 128.363281 267.441406 127.132812 C 267.066406 125.898438 266.753906 124.652344 266.503906 123.390625 C 266.253906 122.125 266.0625 120.855469 265.9375 119.574219 C 265.8125 118.292969 265.75 117.007812 265.75 115.71875 C 265.75 114.429688 265.8125 113.148438 265.9375 111.867188 C 266.0625 110.582031 266.253906 109.3125 266.503906 108.046875 C 266.753906 106.785156 267.066406 105.539062 267.441406 104.304688 C 267.816406 103.074219 268.25 101.863281 268.742188 100.671875 C 269.234375 99.484375 269.785156 98.320312 270.390625 97.183594 C 270.996094 96.050781 271.660156 94.945312 272.375 93.875 C 273.089844 92.804688 273.855469 91.773438 274.671875 90.777344 C 275.488281 89.78125 276.355469 88.828125 277.265625 87.917969 C 278.175781 87.007812 279.128906 86.144531 280.121094 85.328125 C 281.117188 84.507812 282.152344 83.742188 283.222656 83.027344 C 284.292969 82.3125 285.394531 81.652344 286.53125 81.042969 C 287.667969 80.4375 288.828125 79.886719 290.019531 79.394531 C 291.210938 78.902344 292.421875 78.46875 293.652344 78.09375 C 294.882812 77.722656 296.132812 77.410156 297.394531 77.15625 C 298.660156 76.90625 299.929688 76.71875 301.210938 76.589844 C 302.492188 76.464844 303.777344 76.402344 305.066406 76.402344 C 306.351562 76.402344 307.636719 76.464844 308.917969 76.589844 C 310.199219 76.71875 311.472656 76.90625 312.734375 77.15625 C 314 77.410156 315.246094 77.722656 316.480469 78.09375 C 317.710938 78.46875 318.921875 78.902344 320.113281 79.394531 C 321.300781 79.886719 322.464844 80.4375 323.601562 81.042969 C 324.734375 81.652344 325.839844 82.3125 326.910156 83.027344 C 327.980469 83.742188 329.011719 84.507812 330.007812 85.328125 C 331.003906 86.144531 331.957031 87.007812 332.867188 87.917969 C 333.777344 88.828125 334.640625 89.78125 335.457031 90.777344 C 336.277344 91.773438 337.042969 92.804688 337.757812 93.875 C 338.472656 94.945312 339.132812 96.050781 339.742188 97.183594 C 340.347656 98.320312 340.898438 99.484375 341.390625 100.671875 C 341.882812 101.863281 342.316406 103.074219 342.691406 104.304688 C 343.0625 105.539062 343.375 106.785156 343.628906 108.046875 C 343.878906 109.3125 344.066406 110.582031 344.195312 111.867188 C 344.320312 113.148438 344.382812 114.429688 344.382812 115.71875 Z M 344.382812 115.71875 " fill-opacity="1" fill-rule="nonzero"/></g><g clip-path="url(#87b80d0a73)"><path fill="#666667" d="M 227.40625 115.71875 C 227.40625 117.007812 227.34375 118.292969 227.21875 119.574219 C 227.089844 120.855469 226.902344 122.125 226.652344 123.390625 C 226.402344 124.652344 226.089844 125.898438 225.714844 127.132812 C 225.339844 128.363281 224.90625 129.574219 224.414062 130.765625 C 223.921875 131.953125 223.371094 133.117188 222.765625 134.253906 C 222.15625 135.390625 221.496094 136.492188 220.78125 137.5625 C 220.066406 138.632812 219.300781 139.667969 218.484375 140.660156 C 217.664062 141.65625 216.800781 142.609375 215.890625 143.519531 C 214.980469 144.429688 214.027344 145.296875 213.03125 146.113281 C 212.035156 146.929688 211.003906 147.695312 209.933594 148.410156 C 208.863281 149.125 207.757812 149.789062 206.625 150.394531 C 205.488281 151 204.324219 151.550781 203.136719 152.042969 C 201.945312 152.535156 200.734375 152.96875 199.503906 153.34375 C 198.269531 153.71875 197.023438 154.03125 195.761719 154.28125 C 194.496094 154.53125 193.226562 154.722656 191.945312 154.847656 C 190.660156 154.972656 189.378906 155.035156 188.089844 155.035156 C 186.800781 155.035156 185.515625 154.972656 184.234375 154.847656 C 182.953125 154.722656 181.683594 154.53125 180.417969 154.28125 C 179.15625 154.03125 177.910156 153.71875 176.675781 153.34375 C 175.445312 152.96875 174.234375 152.535156 173.042969 152.042969 C 171.855469 151.550781 170.691406 151 169.554688 150.394531 C 168.417969 149.789062 167.316406 149.125 166.246094 148.410156 C 165.175781 147.695312 164.140625 146.929688 163.148438 146.113281 C 162.152344 145.296875 161.199219 144.429688 160.289062 143.519531 C 159.378906 142.609375 158.515625 141.65625 157.695312 140.660156 C 156.878906 139.667969 156.113281 138.632812 155.398438 137.5625 C 154.683594 136.492188 154.023438 135.390625 153.414062 134.253906 C 152.808594 133.117188 152.257812 131.953125 151.765625 130.765625 C 151.273438 129.574219 150.839844 128.363281 150.464844 127.132812 C 150.089844 125.898438 149.777344 124.652344 149.527344 123.390625 C 149.277344 122.125 149.085938 120.855469 148.960938 119.574219 C 148.835938 118.292969 148.773438 117.007812 148.773438 115.71875 C 148.773438 114.429688 148.835938 113.148438 148.960938 111.867188 C 149.085938 110.582031 149.277344 109.3125 149.527344 108.046875 C 149.777344 106.785156 150.089844 105.539062 150.464844 104.304688 C 150.839844 103.074219 151.273438 101.863281 151.765625 100.671875 C 152.257812 99.484375 152.808594 98.320312 153.414062 97.183594 C 154.023438 96.050781 154.683594 94.945312 155.398438 93.875 C 156.113281 92.804688 156.878906 91.773438 157.695312 90.777344 C 158.515625 89.78125 159.378906 88.828125 160.289062 87.917969 C 161.199219 87.007812 162.152344 86.144531 163.148438 85.328125 C 164.140625 84.507812 165.175781 83.742188 166.246094 83.027344 C 167.316406 82.3125 168.417969 81.652344 169.554688 81.042969 C 170.691406 80.4375 171.855469 79.886719 173.042969 79.394531 C 174.234375 78.902344 175.445312 78.46875 176.675781 78.09375 C 177.910156 77.722656 179.15625 77.410156 180.417969 77.15625 C 181.683594 76.90625 182.953125 76.71875 184.234375 76.589844 C 185.515625 76.464844 186.800781 76.402344 188.089844 76.402344 C 189.378906 76.402344 190.660156 76.464844 191.945312 76.589844 C 193.226562 76.71875 194.496094 76.90625 195.761719 77.15625 C 197.023438 77.410156 198.269531 77.722656 199.503906 78.09375 C 200.734375 78.46875 201.945312 78.902344 203.136719 79.394531 C 204.324219 79.886719 205.488281 80.4375 206.625 81.042969 C 207.757812 81.652344 208.863281 82.3125 209.933594 83.027344 C 211.003906 83.742188 212.035156 84.507812 213.03125 85.328125 C 214.027344 86.144531 214.980469 87.007812 215.890625 87.917969 C 216.800781 88.828125 217.664062 89.78125 218.484375 90.777344 C 219.300781 91.773438 220.066406 92.804688 220.78125 93.875 C 221.496094 94.945312 222.15625 96.050781 222.765625 97.183594 C 223.371094 98.320312 223.921875 99.484375 224.414062 100.671875 C 224.90625 101.863281 225.339844 103.074219 225.714844 104.304688 C 226.089844 105.539062 226.402344 106.785156 226.652344 108.046875 C 226.902344 109.3125 227.089844 110.582031 227.21875 111.867188 C 227.34375 113.148438 227.40625 114.429688 227.40625 115.71875 Z M 227.40625 115.71875 " fill-opacity="1" fill-rule="nonzero"/></g></svg>