<svg xmlns="http://www.w3.org/2000/svg" xmlns:xlink="http://www.w3.org/1999/xlink" width="500" zoomAndPan="magnify" viewBox="0 0 375 374.999991" height="500" preserveAspectRatio="xMidYMid meet" version="1.0"><path fill="#ffffff" d="M 187.5 0 C 83.949219 0 0 83.949219 0 187.5 C 0 291.050781 83.949219 375 187.5 375 C 291.050781 375 375 291.050781 375 187.5 C 375 83.949219 291.050781 0 187.5 0 Z M 219.058594 286.761719 C 219.058594 290.664062 215.347656 292.914062 207.921875 292.914062 L 167.078125 292.914062 C 160.019531 292.914062 155.941406 290.65625 155.941406 286.761719 L 155.941406 155.496094 C 155.941406 151.394531 160.027344 149.347656 167.078125 149.347656 L 207.921875 149.347656 C 215.347656 149.347656 219.058594 151.402344 219.058594 155.496094 Z M 187.5 135.359375 C 169.066406 135.359375 154.109375 120.414062 154.109375 101.976562 C 154.109375 83.542969 169.058594 68.585938 187.5 68.585938 C 205.941406 68.585938 220.890625 83.535156 220.890625 101.976562 C 220.890625 120.421875 205.941406 135.359375 187.5 135.359375 Z M 187.5 135.359375 " fill-opacity="1" fill-rule="nonzero"/><path fill="#666667" d="M 363.9375 179.625 L 195.28125 10.96875 C 188.4375 4.21875 179.0625 0 168.75 0 L 37.5 0 C 16.78125 0 0 16.78125 0 37.5 L 0 168.75 C 0 179.15625 4.21875 188.53125 11.0625 195.28125 L 179.8125 364.03125 C 186.5625 370.78125 195.9375 375 206.25 375 C 216.5625 375 226.03125 370.78125 232.78125 364.03125 L 364.03125 232.78125 C 370.78125 225.9375 375 216.5625 375 206.25 C 375 195.84375 370.78125 186.46875 363.9375 179.625 Z M 65.625 93.75 C 50.0625 93.75 37.5 81.1875 37.5 65.625 C 37.5 50.0625 50.0625 37.5 65.625 37.5 C 81.1875 37.5 93.75 50.0625 93.75 65.625 C 93.75 81.1875 81.1875 93.75 65.625 93.75 Z M 65.625 93.75 " fill-opacity="1" fill-rule="nonzero"/></svg>